<svg xmlns="http://www.w3.org/2000/svg" width="35" height="36" fill="none" viewBox="0 0 35 36">
  <path stroke="#000" stroke-linecap="round" stroke-linejoin="round" stroke-width="2.179" d="M18.645 19.883a4.358 4.358 0 1 0 0-8.716 4.358 4.358 0 0 0 0 8.716ZM4.482 14.98H7.75M4.482 9.533H7.75M4.482 20.427H7.75m-3.268 5.447H7.75"/>
  <path stroke="#000" stroke-linecap="round" stroke-linejoin="round" stroke-width="2.179" d="M12.108 23.15a8.172 8.172 0 0 1 13.073 0"/>
  <path stroke="#000" stroke-linecap="round" stroke-linejoin="round" stroke-width="2.179" d="M29.54 29.688V5.72a1.09 1.09 0 0 0-1.09-1.09H8.84a1.09 1.09 0 0 0-1.09 1.09v23.968a1.09 1.09 0 0 0 1.09 1.089h19.61a1.09 1.09 0 0 0 1.09-1.09Z"/>
</svg>
