<svg width="195" height="195" viewBox="0 0 195 195" fill="none" xmlns="http://www.w3.org/2000/svg">
<g filter="url(#filter0_d_57_20577)">
<path d="M97.3495 145.497C123.824 145.497 145.285 124.035 145.285 97.5614C145.285 71.0874 123.824 49.626 97.3495 49.626C70.8755 49.626 49.4141 71.0874 49.4141 97.5614C49.4141 124.035 70.8755 145.497 97.3495 145.497Z" fill="white" stroke="#25C967" stroke-width="2.17888"/>
</g>
<path d="M97.3525 81.0576C97.0424 81.0572 96.7352 81.118 96.4486 81.2364C96.1619 81.3549 95.9015 81.5288 95.6822 81.7481C95.4629 81.9674 95.289 82.2279 95.1705 82.5145C95.052 82.8011 94.9913 83.1083 94.9917 83.4184V102.277C94.9917 102.902 95.2401 103.502 95.6822 103.944C96.1243 104.386 96.724 104.634 97.3493 104.634C97.9745 104.634 98.5742 104.386 99.0163 103.944C99.4584 103.502 99.7068 102.902 99.7068 102.277V83.4184C99.7072 83.1088 99.6467 82.8022 99.5286 82.516C99.4105 82.2298 99.2372 81.9697 99.0186 81.7504C98.8 81.5312 98.5403 81.3572 98.2545 81.2383C97.9686 81.1195 97.6621 81.058 97.3525 81.0576V81.0576Z" fill="#F0AF33"/>
<path d="M98.4354 109.348H96.2631C95.5609 109.348 94.9917 109.917 94.9917 110.619V112.791C94.9917 113.494 95.5609 114.063 96.2631 114.063H98.4354C99.1376 114.063 99.7068 113.494 99.7068 112.791V110.619C99.7068 109.917 99.1376 109.348 98.4354 109.348Z" fill="#F0AF33"/>
<defs>
<filter id="filter0_d_57_20577" x="0.389252" y="0.600677" width="193.921" height="193.921" filterUnits="userSpaceOnUse" color-interpolation-filters="sRGB">
<feFlood flood-opacity="0" result="BackgroundImageFix"/>
<feColorMatrix in="SourceAlpha" type="matrix" values="0 0 0 0 0 0 0 0 0 0 0 0 0 0 0 0 0 0 127 0" result="hardAlpha"/>
<feOffset/>
<feGaussianBlur stdDeviation="23.9677"/>
<feColorMatrix type="matrix" values="0 0 0 0 0.690196 0 0 0 0 0.717647 0 0 0 0 0.764706 0 0 0 0.129 0"/>
<feBlend mode="normal" in2="BackgroundImageFix" result="effect1_dropShadow_57_20577"/>
<feBlend mode="normal" in="SourceGraphic" in2="effect1_dropShadow_57_20577" result="shape"/>
</filter>
</defs>
</svg>
