<svg xmlns="http://www.w3.org/2000/svg" width="35" height="35" fill="none" viewBox="0 0 35 35">
  <path stroke="#000" stroke-linecap="round" stroke-linejoin="round" stroke-width="2.179" d="M17.431 21.789a4.358 4.358 0 1 0 0-8.716 4.358 4.358 0 0 0 0 8.716ZM10.5 24.363a9.752 9.752 0 0 1-2.098-3.119 9.75 9.75 0 0 1 0-7.626A9.751 9.751 0 0 1 10.5 10.5m13.862 0a9.75 9.75 0 0 1 2.098 3.118 9.75 9.75 0 0 1 0 7.626 9.75 9.75 0 0 1-2.098 3.119M6.646 28.217a15.375 15.375 0 0 1-3.268-4.848 15.306 15.306 0 0 1 0-11.875 15.375 15.375 0 0 1 3.268-4.848m21.57 0a15.375 15.375 0 0 1 3.269 4.848 15.305 15.305 0 0 1 0 11.875 15.375 15.375 0 0 1-3.269 4.848"/>
</svg>
