<svg xmlns="http://www.w3.org/2000/svg" width="36" height="36" fill="none" viewBox="0 0 36 36">
  <path stroke="#000" stroke-linecap="round" stroke-linejoin="round" stroke-width="2.179" d="M24.919 9.365H11.846V15.9h13.073V9.365Z"/>
  <path stroke="#000" stroke-linecap="round" stroke-linejoin="round" stroke-width="2.179" d="M29.277 30.064V6.096a1.09 1.09 0 0 0-1.09-1.089H8.578a1.09 1.09 0 0 0-1.088 1.09v23.967c0 .602.487 1.09 1.089 1.09h19.61a1.09 1.09 0 0 0 1.09-1.09Z"/>
  <path fill="#000" d="M12.936 22.438a1.634 1.634 0 1 0 0-3.268 1.634 1.634 0 0 0 0 3.268Zm5.447 0a1.634 1.634 0 1 0 0-3.268 1.634 1.634 0 0 0 0 3.268Zm5.447 0a1.634 1.634 0 1 0 0-3.268 1.634 1.634 0 0 0 0 3.268Zm-10.894 5.447a1.634 1.634 0 1 0 0-3.268 1.634 1.634 0 0 0 0 3.268Zm5.447 0a1.634 1.634 0 1 0 0-3.268 1.634 1.634 0 0 0 0 3.268Zm5.447 0a1.634 1.634 0 1 0 0-3.268 1.634 1.634 0 0 0 0 3.268Z"/>
</svg>
