<svg xmlns="http://www.w3.org/2000/svg" width="20" height="20" fill="none" viewBox="0 0 20 20">
  <path stroke="#1AAF5D" stroke-linecap="round" stroke-linejoin="round" stroke-width="1.226" d="M16.177 3.105H3.92a.613.613 0 0 0-.612.613v12.257c0 .338.274.612.612.612h12.257a.613.613 0 0 0 .613-.612V3.718a.613.613 0 0 0-.613-.613ZM13.726 1.88v2.45M6.372 1.88v2.45M3.308 6.782H16.79"/>
  <path stroke="#1AAF5D" stroke-linecap="round" stroke-linejoin="round" stroke-width="1.226" d="M7.291 9.846h2.145L8.21 11.378a1.226 1.226 0 1 1-.865 2.09m3.929-2.703 1.226-.92v3.984"/>
</svg>
