<svg xmlns="http://www.w3.org/2000/svg" width="31" height="30" fill="none" viewBox="0 0 31 30">
  <path stroke="#3E4958" stroke-linecap="round" stroke-linejoin="round" stroke-width="1.855" d="M5.81 20.563a11.115 11.115 0 1 1 3.894 3.894v0l-3.848 1.09A.916.916 0 0 1 4.72 24.41l1.09-3.848Z"/>
  <path fill="#3E4958" d="M15.383 16.274a1.39 1.39 0 1 0 0-2.781 1.39 1.39 0 0 0 0 2.781Zm-5.563 0a1.39 1.39 0 1 0 0-2.781 1.39 1.39 0 0 0 0 2.781Zm11.126 0a1.39 1.39 0 1 0 0-2.781 1.39 1.39 0 0 0 0 2.781Z"/>
</svg>
