<svg xmlns="http://www.w3.org/2000/svg" width="35" height="35" fill="none" viewBox="0 0 35 35">
  <path stroke="#000" stroke-linecap="round" stroke-linejoin="round" stroke-width="2.179" d="m10.54 27.495-4.398 3.677a1.09 1.09 0 0 1-1.784-.831V8.716a1.09 1.09 0 0 1 1.09-1.09h23.967a1.09 1.09 0 0 1 1.09 1.09v17.43a1.09 1.09 0 0 1-1.09 1.09h-18.18c-.255 0-.502.092-.694.259v0Z"/>
  <path fill="#000" d="M17.431 19.065a1.634 1.634 0 1 0 0-3.268 1.634 1.634 0 0 0 0 3.268Zm-6.537 0a1.634 1.634 0 1 0 0-3.268 1.634 1.634 0 0 0 0 3.268Zm13.074 0a1.634 1.634 0 1 0 0-3.268 1.634 1.634 0 0 0 0 3.268Z"/>
</svg>
