<svg xmlns="http://www.w3.org/2000/svg" width="35" height="35" fill="none" viewBox="0 0 35 35">
  <path stroke="#000" stroke-linecap="round" stroke-linejoin="round" stroke-width="2.179" d="M17.976 29.415H6.496a1.036 1.036 0 0 1-1.049-1.049v-11.48A12.529 12.529 0 0 1 17.976 4.358v0a12.528 12.528 0 0 1 12.529 12.528v0a12.528 12.528 0 0 1-12.53 12.529v0Z"/>
  <path fill="#000" d="M17.976 19.065a1.634 1.634 0 1 0 0-3.268 1.634 1.634 0 0 0 0 3.268Zm-6.537 0a1.634 1.634 0 1 0 0-3.268 1.634 1.634 0 0 0 0 3.268Zm13.073 0a1.634 1.634 0 1 0 0-3.268 1.634 1.634 0 0 0 0 3.268Z"/>
</svg>
