<svg xmlns="http://www.w3.org/2000/svg" width="36" height="36" fill="none" viewBox="0 0 36 36">
  <path stroke="#000" stroke-linecap="round" stroke-linejoin="round" stroke-width="2.179" d="M6.755 25.1a13.06 13.06 0 1 1 4.576 4.576v0l-4.521 1.28a1.076 1.076 0 0 1-1.335-1.334l1.28-4.521Z"/>
  <path fill="#000" d="M18.004 20.062a1.634 1.634 0 1 0 0-3.268 1.634 1.634 0 0 0 0 3.268Zm-6.537 0a1.634 1.634 0 1 0 0-3.268 1.634 1.634 0 0 0 0 3.268Zm13.073 0a1.634 1.634 0 1 0 0-3.268 1.634 1.634 0 0 0 0 3.268Z"/>
</svg>
