<svg xmlns="http://www.w3.org/2000/svg" width="21" height="20" fill="none" viewBox="0 0 21 20">
  <path stroke="#8E929E" stroke-linecap="round" stroke-linejoin="round" stroke-width="1.798" d="M13.272 9.438c-3.414 0-6.182-1.245-6.182-2.782 0-1.536 2.768-2.781 6.182-2.781 3.414 0 6.182 1.245 6.182 2.781 0 1.537-2.768 2.782-6.182 2.782Z"/>
  <path stroke="#8E929E" stroke-linecap="round" stroke-linejoin="round" stroke-width="1.798" d="M19.454 6.656v3.091c0 1.538-2.766 2.782-6.182 2.782-3.416 0-6.182-1.244-6.182-2.782v-3.09m8.654 2.55v3.09"/>
  <path stroke="#8E929E" stroke-linecap="round" stroke-linejoin="round" stroke-width="1.798" d="M7.09 7.638C4.268 7.9 2.143 9.02 2.143 10.366c0 1.537 2.766 2.782 6.182 2.782 1.515 0 2.905-.248 3.98-.65"/>
  <path stroke="#8E929E" stroke-linecap="round" stroke-linejoin="round" stroke-width="1.798" d="M14.508 12.475v.982c0 1.538-2.767 2.782-6.182 2.782-3.416 0-6.182-1.244-6.182-2.782v-3.091m3.709 2.55v3.091m4.946-6.8v6.8"/>
</svg>
