<svg xmlns="http://www.w3.org/2000/svg" width="36" height="36" fill="none" viewBox="0 0 36 36">
  <path stroke="#000" stroke-linecap="round" stroke-linejoin="round" stroke-width="2.179" d="M16.824 23.527v6.537h3.813M7.563 23.527l4.903 6.537m0-6.537-4.903 6.537m16.887-.544a3.43 3.43 0 0 0 2.042.68c1.226 0 2.316-.408 2.316-1.77 0-2.179-4.358-1.226-4.358-3.268 0-1.09.817-1.77 2.042-1.77.737.001 1.453.24 2.043.68M7.019 18.08V6.096a1.09 1.09 0 0 1 1.089-1.089h13.073l7.626 7.626v5.447"/>
  <path stroke="#000" stroke-linecap="round" stroke-linejoin="round" stroke-width="2.179" d="M21.181 5.007v7.626h7.626"/>
</svg>
