<svg xmlns="http://www.w3.org/2000/svg" width="36" height="36" fill="none" viewBox="0 0 36 36">
  <path stroke="#000" stroke-linecap="round" stroke-linejoin="round" stroke-width="2.179" d="M6.037 13.082v15.893a1.09 1.09 0 0 0 1.09 1.09h21.788a1.09 1.09 0 0 0 1.09-1.09V7.185a1.09 1.09 0 0 0-1.09-1.089H13.023a1.076 1.076 0 0 0-.762.314l-5.91 5.91a1.076 1.076 0 0 0-.314.762v0Z"/>
  <path stroke="#000" stroke-linecap="round" stroke-linejoin="round" stroke-width="2.179" d="M18.021 24.617a3.813 3.813 0 1 0 0-7.626 3.813 3.813 0 0 0 0 7.626Zm-4.358-13.073h8.716V6.096"/>
</svg>
