<svg xmlns="http://www.w3.org/2000/svg" width="36" height="36" fill="none" viewBox="0 0 36 36">
  <path stroke="#000" stroke-linecap="round" stroke-linejoin="round" stroke-width="2.179" d="M30.28 13.082v15.893a1.09 1.09 0 0 1-1.09 1.09H7.403a1.09 1.09 0 0 1-1.09-1.09V7.185a1.09 1.09 0 0 1 1.09-1.089h15.892a1.076 1.076 0 0 1 .763.314l5.91 5.91a1.076 1.076 0 0 1 .313.762v0Z"/>
  <path stroke="#000" stroke-linecap="round" stroke-linejoin="round" stroke-width="2.179" d="M11.76 30.064V21.35a1.089 1.089 0 0 1 1.09-1.09h10.894a1.09 1.09 0 0 1 1.09 1.09v8.715m-3.269-19.611H13.94"/>
</svg>
