<svg xmlns="http://www.w3.org/2000/svg" width="36" height="36" fill="none" viewBox="0 0 36 36">
  <path stroke="#000" stroke-linecap="round" stroke-linejoin="round" stroke-width="2.179" d="M18.021 11.268h11.984a1.09 1.09 0 0 1 1.09 1.09V27.61a1.09 1.09 0 0 1-1.09 1.089H6.037a1.09 1.09 0 0 1-1.09-1.09V14.537"/>
  <path stroke="#000" stroke-linecap="round" stroke-linejoin="round" stroke-width="2.179" d="M13.296 14.536H4.948V9.09A1.09 1.09 0 0 1 6.038 8h7.258c.235.002.464.078.653.218l4.072 3.05-4.072 3.051c-.189.14-.418.217-.653.218v0Zm1.456 5.992h6.537m-3.268-3.268v6.537"/>
</svg>
