<svg xmlns="http://www.w3.org/2000/svg" width="36" height="36" fill="none" viewBox="0 0 36 36">
  <path stroke="#000" stroke-linecap="round" stroke-linejoin="round" stroke-width="2.179" d="M5.223 28.699V9.089A1.09 1.09 0 0 1 6.313 8h7.258c.236.002.465.078.654.218l3.786 2.833c.189.14.418.217.653.218h9.437a1.09 1.09 0 0 1 1.09 1.09v3.268"/>
  <path stroke="#000" stroke-linecap="round" stroke-linejoin="round" stroke-width="2.179" d="M5.223 28.699 9.31 18.485a1.076 1.076 0 0 1 1.007-.68h6.564c.213-.003.42-.064.6-.177l2.723-1.825a1.14 1.14 0 0 1 .6-.177h11.234a1.09 1.09 0 0 1 1.035 1.43l-3.881 11.643H5.223Z"/>
</svg>
