<svg xmlns="http://www.w3.org/2000/svg" width="36" height="36" fill="none" viewBox="0 0 36 36">
  <path stroke="#000" stroke-linecap="round" stroke-linejoin="round" stroke-width="2.179" d="M18.36 11.268h11.985a1.09 1.09 0 0 1 1.09 1.09V27.61a1.09 1.09 0 0 1-1.09 1.089H6.377a1.09 1.09 0 0 1-1.09-1.09V14.537"/>
  <path stroke="#000" stroke-linecap="round" stroke-linejoin="round" stroke-width="2.179" d="M13.635 14.536H5.288V9.09A1.09 1.09 0 0 1 6.377 8h7.258c.236.002.465.078.654.218l4.072 3.05-4.072 3.051c-.189.14-.418.217-.654.218v0Zm1.458 5.992h6.536"/>
</svg>
