<svg xmlns="http://www.w3.org/2000/svg" width="31" height="30" fill="none" viewBox="0 0 31 30">
  <path stroke="#3E4958" stroke-linecap="round" stroke-linejoin="round" stroke-width="1.855" d="M15.8 20.607a5.563 5.563 0 1 0 0-11.127 5.563 5.563 0 0 0 0 11.127Z"/>
  <path stroke="#3E4958" stroke-linecap="round" stroke-linejoin="round" stroke-width="1.855" d="M23.843 9.56c.28.4.524.823.73 1.264l3.003 1.669a11.84 11.84 0 0 1 .011 5.1l-3.013 1.669a8.537 8.537 0 0 1-.73 1.263l.057 3.443a12.053 12.053 0 0 1-4.416 2.561l-2.955-1.773c-.486.035-.975.035-1.46 0l-2.945 1.762a11.894 11.894 0 0 1-4.427-2.55l.058-3.431a9.288 9.288 0 0 1-.73-1.275l-3.003-1.67a11.823 11.823 0 0 1-.011-5.099l3.013-1.669a8.53 8.53 0 0 1 .73-1.263l-.057-3.443a12.054 12.054 0 0 1 4.416-2.561l2.955 1.773c.486-.035.975-.035 1.46 0l2.945-1.762c1.643.52 3.154 1.39 4.427 2.55l-.058 3.443Z"/>
</svg>
