<svg xmlns="http://www.w3.org/2000/svg" width="36" height="36" fill="none" viewBox="0 0 36 36">
  <path stroke="#000" stroke-linecap="round" stroke-linejoin="round" stroke-width="2.179" d="M17.832 21.073a3.268 3.268 0 1 0 0-6.537 3.268 3.268 0 0 0 0 6.537Zm-4.359-9.805a3.268 3.268 0 1 0 0-6.537 3.268 3.268 0 0 0 0 6.537Zm14.164 6.537a3.268 3.268 0 1 0 0-6.537 3.268 3.268 0 0 0 0 6.537Zm0 10.894a3.268 3.268 0 1 0 0-6.537 3.268 3.268 0 0 0 0 6.537ZM8.026 29.788a3.268 3.268 0 1 0 0-6.536 3.268 3.268 0 0 0 0 6.537Zm8.484-14.966-1.715-3.84m9.735 4.589-3.595 1.199m4.128 6.659-4.658-3.622m-5.011.163-4.93 4.385"/>
</svg>
