<svg xmlns="http://www.w3.org/2000/svg" width="29" height="28" fill="none" viewBox="0 0 29 28">
  <path stroke="#B0B3BB" stroke-linecap="round" stroke-linejoin="round" stroke-width="2.179" d="M14.582 19.756a4.256 4.256 0 1 0 0-8.51 4.256 4.256 0 0 0 0 8.51Zm7.234-6.808a6.362 6.362 0 0 1 5.107 2.554m-24.683 0a6.362 6.362 0 0 1 5.107-2.554"/>
  <path stroke="#B0B3BB" stroke-linecap="round" stroke-linejoin="round" stroke-width="2.179" d="M8.454 23.587a6.82 6.82 0 0 1 12.256 0M7.347 12.948a3.405 3.405 0 1 1 3.341-4.043m7.788 0a3.404 3.404 0 1 1 3.34 4.043"/>
</svg>
