<svg xmlns="http://www.w3.org/2000/svg" width="32" height="32" fill="none" viewBox="0 0 32 32">
  <path stroke="#8E929E" stroke-linecap="round" stroke-linejoin="round" stroke-width="1.937" d="M6.91 15.04a2.18 2.18 0 1 0-3.776 2.178l4.479 7.758a8.714 8.714 0 0 0 15.092-8.714l-2.057-3.57a2.178 2.178 0 0 0-3.764 2.178"/>
  <path stroke="#8E929E" stroke-linecap="round" stroke-linejoin="round" stroke-width="1.937" d="M13.59 17.896 8.993 9.932a2.18 2.18 0 1 0-3.776 2.179l4.599 7.964"/>
  <path stroke="#8E929E" stroke-linecap="round" stroke-linejoin="round" stroke-width="1.937" d="m18.82 18.235-5.083-8.811a2.18 2.18 0 1 0-3.776 2.178"/>
  <path stroke="#8E929E" stroke-linecap="round" stroke-linejoin="round" stroke-width="1.937" d="m12.624 8.48-1.247-2.167a2.18 2.18 0 0 0-3.776 2.179l.29.496m15.502 14.475a8.726 8.726 0 0 0 1.707-10.82l-2.058-3.558a2.18 2.18 0 0 0-3.776 2.178"/>
  <path stroke="#8E929E" stroke-linecap="round" stroke-linejoin="round" stroke-width="1.937" d="m19.545 11.748-3.425-5.93a2.18 2.18 0 0 0-3.776 2.178m9.694-6.343-.496 1.864m4.165-.157-1.114 1.586m3.957 1.258-1.585 1.114"/>
</svg>
