<svg xmlns="http://www.w3.org/2000/svg" width="35" height="35" fill="none" viewBox="0 0 35 35">
  <path stroke="#000" stroke-linecap="round" stroke-linejoin="round" stroke-width="2.179" d="M30.71 17.431h-4.358a2.179 2.179 0 0 0-2.18 2.179v5.447a2.179 2.179 0 0 0 2.18 2.18h2.178a2.179 2.179 0 0 0 2.18-2.18v-7.626Zm0 0A13.074 13.074 0 0 0 17.526 4.358 13.073 13.073 0 0 0 4.358 17.43v7.626a2.179 2.179 0 0 0 2.18 2.18h2.178a2.18 2.18 0 0 0 2.18-2.18V19.61a2.179 2.179 0 0 0-2.18-2.179H4.358"/>
  <path stroke="#000" stroke-linecap="round" stroke-linejoin="round" stroke-width="2.179" d="M30.709 25.057v3.269a4.358 4.358 0 0 1-4.358 4.357h-7.83"/>
</svg>
