<svg xmlns="http://www.w3.org/2000/svg" width="35" height="35" fill="none" viewBox="0 0 35 35">
  <path stroke="#000" stroke-linecap="round" stroke-linejoin="round" stroke-width="2.179" d="M30.708 18.52h-4.357a2.18 2.18 0 0 0-2.18 2.18v5.447a2.179 2.179 0 0 0 2.18 2.179h2.178a2.178 2.178 0 0 0 2.18-2.18V18.52Zm0 0A13.073 13.073 0 0 0 17.526 5.447 13.074 13.074 0 0 0 4.357 18.52v7.627a2.179 2.179 0 0 0 2.18 2.179h2.178a2.179 2.179 0 0 0 2.18-2.18V20.7a2.179 2.179 0 0 0-2.18-2.179H4.357"/>
</svg>
