<svg xmlns="http://www.w3.org/2000/svg" width="36" height="36" fill="none" viewBox="0 0 36 36">
  <path stroke="#000" stroke-linecap="round" stroke-linejoin="round" stroke-width="2.179" d="M29.988 6.81H6.02a1.09 1.09 0 0 0-1.09 1.089v19.61a1.09 1.09 0 0 0 1.09 1.089h23.968a1.09 1.09 0 0 0 1.09-1.09V7.899a1.09 1.09 0 0 0-1.09-1.089Z"/>
  <path stroke="#000" stroke-linecap="round" stroke-linejoin="round" stroke-width="2.179" d="m4.93 23.15 6.85-6.849a1.089 1.089 0 0 1 1.553 0l6.074 6.074a1.09 1.09 0 0 0 1.552 0l2.805-2.806a1.09 1.09 0 0 1 1.553 0l5.76 5.76"/>
  <path fill="#000" d="M21.818 15.525a1.634 1.634 0 1 0 0-3.268 1.634 1.634 0 0 0 0 3.268Z"/>
</svg>
