<svg xmlns="http://www.w3.org/2000/svg" width="36" height="36" fill="none" viewBox="0 0 36 36">
  <path stroke="#000" stroke-linecap="round" stroke-linejoin="round" stroke-width="2.179" d="M28.623 5.72H6.835a1.09 1.09 0 0 0-1.09 1.09v21.788c0 .602.488 1.09 1.09 1.09h21.788a1.09 1.09 0 0 0 1.09-1.09V6.809a1.09 1.09 0 0 0-1.09-1.09Z"/>
  <path stroke="#000" stroke-linecap="round" stroke-linejoin="round" stroke-width="2.179" d="m29.713 22.061-5.76-5.76a1.09 1.09 0 0 0-1.553 0l-6.074 6.074a1.09 1.09 0 0 1-1.552 0l-2.805-2.806a1.09 1.09 0 0 0-1.553 0l-4.67 4.671"/>
  <path fill="#000" d="M13.915 14.435a1.634 1.634 0 1 0 0-3.268 1.634 1.634 0 0 0 0 3.268Z"/>
</svg>
