<svg xmlns="http://www.w3.org/2000/svg" width="35" height="35" fill="none" viewBox="0 0 35 35">
  <path stroke="#000" stroke-linecap="round" stroke-linejoin="round" stroke-width="2.179" d="M24.021 24.69A9.805 9.805 0 0 1 7.68 18.52"/>
  <path stroke="#000" stroke-linecap="round" stroke-linejoin="round" stroke-width="2.179" d="M21.094 21.462a5.393 5.393 0 0 1-3.663 1.416v0a5.447 5.447 0 0 1-5.448-5.447V11.44m5.447 15.796v4.358M6.536 5.447l21.789 23.968M12.8 5.856a5.42 5.42 0 0 1 4.63-2.588v0a5.447 5.447 0 0 1 5.448 5.448v8.225m4.303 1.579a9.86 9.86 0 0 1-.613 2.48"/>
</svg>
