<svg xmlns="http://www.w3.org/2000/svg" width="29" height="28" fill="none" viewBox="0 0 29 28">
  <path stroke="#5D6375" stroke-linecap="round" stroke-linejoin="round" stroke-width="2.179" d="M23.41 21.458a.862.862 0 0 1-1.063.628 29.044 29.044 0 0 0-15.501 0 .86.86 0 0 1-1.064-.628L3.069 9.936a.851.851 0 0 1 1.17-.98l5.383 2.395a.862.862 0 0 0 1.096-.362l3.128-5.639a.851.851 0 0 1 1.49 0l3.127 5.639a.862.862 0 0 0 1.096.362l5.384-2.394a.851.851 0 0 1 1.17.979L23.41 21.458Z"/>
  <path stroke="#5D6375" stroke-linecap="round" stroke-linejoin="round" stroke-width="2.179" d="M17.995 17.81a31.67 31.67 0 0 0-6.809 0"/>
</svg>
