<svg xmlns="http://www.w3.org/2000/svg" width="30" height="31" fill="none" viewBox="0 0 30 31">
  <path stroke="#3E4958" stroke-linecap="round" stroke-linejoin="round" stroke-width="1.855" d="m14.439 23.02-5.842 3.708c-.753.476-1.68-.232-1.46-1.1l1.692-6.654a1.009 1.009 0 0 0-.336-1.02l-5.24-4.37c-.683-.567-.335-1.715.557-1.773l6.839-.44a.96.96 0 0 0 .846-.626l2.55-6.421a.962.962 0 0 1 1.808 0l2.55 6.42a.961.961 0 0 0 .846.627l6.838.44c.893.058 1.24 1.206.557 1.774l-5.24 4.37a1.008 1.008 0 0 0-.335 1.02l1.564 6.165c.267 1.044-.846 1.89-1.738 1.322l-5.436-3.443a.95.95 0 0 0-1.02 0v0Z"/>
</svg>
