<svg xmlns="http://www.w3.org/2000/svg" width="24" height="28" fill="none" viewBox="0 0 24 28">
  <g clip-path="url(#a)">
    <path fill="#FBFBFB" d="M14.083 4.22 7.679 18.056 1.28 4.22h2.887l3.515 8.13 3.53-8.13h2.87Z"/>
    <path fill="#FBFBFB" d="M15.05 4.59 7.456 18.7 1.607 3.751l3.032.189 3.18 8.766 4.218-8.305 3.013.188Z" opacity=".31"/>
    <g opacity=".31" style="mix-blend-mode:overlay">
      <path fill="#FBFBFB" d="m.458 3.9 3.345-.136 3.93 8.19 3.295-8.484 3.326-.135-6.364 15.3L.458 3.9Z"/>
      <path fill="#FBFBFB" d="M14.14 3.485 7.977 18.302.683 4.032l3.035-.123 4.028 8.395 3.377-8.696 3.017-.123m.427-.301-.438.017-3.017.123-.18.008-.067.171-3.146 8.1-3.752-7.819-.08-.166-.18.007-3.035.124-.438.018.203.396 7.294 14.27.272.533.23-.553 6.163-14.818.171-.411Z"/>
    </g>
    <path fill="#FBFBFB" d="m13.483 6.532-3.715 8.373a.027.027 0 0 1-.027.01c-.012-.002-.02-.008-.016-.015l.882-2.02a.036.036 0 0 1-.02.003c-.013-.001-.02-.008-.017-.014l2.538-5.72a.027.027 0 0 1 .026-.01c.012.002.02.008.016.015l-.68 1.56.97-2.187a.028.028 0 0 1 .027-.01c.012.002.019.008.016.015Zm-.423 1.141a.027.027 0 0 0-.026.01l-1.668 3.758a.03.03 0 0 0-.01-.003.027.027 0 0 0-.027.01l-2.414 5.44c-.003.006.004.012.016.013a.03.03 0 0 0 .006 0l-.496 1.132c-.003.007.005.013.017.014a.027.027 0 0 0 .026-.01l4.592-10.35c.003-.006-.004-.012-.016-.014Zm-3.33 6.055-1.436 3.234a.027.027 0 0 1-.027.01c-.012-.002-.019-.008-.016-.015l.15-.338v-.004l.622-1.474-.875 1.972a.028.028 0 0 1-.027.01c-.012-.002-.019-.008-.016-.015l.103-.234-.144.324.072.162a.029.029 0 0 1-.01.027c-.01.008-.02.01-.022.003l-.063-.14-.39.878-.002.001.33.742a.028.028 0 0 1-.011.027c-.01.009-.019.01-.021.003l-.266-.598c-.008.006-.015.007-.018 0l-.062-.139-.019.041.317.715a.028.028 0 0 1-.01.027c-.01.008-.019.01-.022.003l-.307-.694-.293.659a.027.027 0 0 1-.027.01c-.011-.002-.018-.009-.015-.015l.265-.598c-.01-.002-.015-.008-.013-.014l.05-.114-.018-.042-.33.744a.028.028 0 0 1-.026.01c-.012-.002-.02-.008-.016-.015l.35-.79-.106-.239c-.008.007-.017.008-.02.002l-2.23-4.944.51 1.15a.023.023 0 0 1-.004.02l.846 1.909a.028.028 0 0 1-.01.027c-.01.008-.019.01-.022.003L5.03 12.812l-.64-1.41a.04.04 0 0 1-.006.007.026.026 0 0 1-.011.007l2.502 5.644a.029.029 0 0 1-.01.027c-.009.008-.018.01-.021.003l-.809-1.784c-.008.007-.017.008-.02.002l-.95-2.142-.253-.56a.04.04 0 0 1-.007.01c-.01.008-.019.009-.022.002L3.224 9.102a.028.028 0 0 1 .01-.027.023.023 0 0 1 .015-.007l-2.2-4.96a.029.029 0 0 1 .011-.026c.009-.009.019-.01.021-.003L3.05 8.414a.04.04 0 0 1 .005-.005c.009-.008.018-.01.021-.003l.028.06-1.371-3.091a.023.023 0 0 1 .004-.02l-.634-1.43a.028.028 0 0 1 .01-.027c.01-.009.02-.01.022-.003l.897 2.024a.04.04 0 0 1 .007-.01c.01-.007.019-.009.022-.002l2.424 5.467.218.484-3.02-6.81a.018.018 0 0 1 .002-.013l-.542-1.222a.029.029 0 0 1 .01-.027c.01-.008.019-.01.022-.003l.423.94-.053-.12a.029.029 0 0 1 .011-.026c.009-.008.018-.01.021-.003L2.74 7.2l.117.256s.002.001.002.003l.048.108 1.028 2.265-1.684-3.798a.029.029 0 0 1 .011-.027.031.031 0 0 1 .008-.005l-.003-.005a.023.023 0 0 1 .005-.02l-.716-1.615a.029.029 0 0 1 .01-.027c.01-.008.019-.01.022-.003L2.65 6.731l.002-.002c.009-.009.018-.01.021-.003l2.793 6.299.18.386-2.837-6.4a.028.028 0 0 1 .01-.027c.009-.008.018-.01.021-.003l.581 1.257-.9-2.032a.028.028 0 0 1 .01-.026L1.525 3.912a.028.028 0 0 1 .01-.027c.01-.008.019-.01.022-.003l2.039 4.553c.005-.002.01-.001.012.003l1.145 2.582a.029.029 0 0 1-.01.026.031.031 0 0 1-.007.005l2.293 5.173c0 .005 0 .01-.002.015a.028.028 0 0 1-.008.012c-.01.008-.019.01-.022.003l-1.204-2.702a.04.04 0 0 1-.01.01l1.434 3.234a.028.028 0 0 1-.01.027c-.01.008-.019.01-.022.003l-.15-.339a.007.007 0 0 1-.002-.003l-.675-1.449.874 1.973a.029.029 0 0 1-.01.026c-.01.009-.019.01-.022.003l-.105-.233.481 1.085.047-.105c-.01-.002-.017-.008-.014-.014l.327-.751-.065-.145a.027.027 0 0 1-.025.009c-.012-.001-.02-.008-.017-.014l.02-.045-.252-.561a.04.04 0 0 1-.004.004c-.009.009-.018.01-.021.003L5.16 10.83a.028.028 0 0 1 .01-.027.028.028 0 0 1 .01-.006L3.514 7.04a.028.028 0 0 1 .01-.027c.01-.008.02-.01.022-.003l4.328 9.76.737-1.697c-.011-.002-.018-.008-.015-.014l.95-2.141.245-.565h-.012c-.012 0-.019-.007-.016-.014l1.56-3.516a.027.027 0 0 1 .027-.01c.005.001.01.003.014.007l2.2-4.96a.027.027 0 0 1 .027-.009c.012.001.02.008.017.014l-1.894 4.37h.007c.012.002.02.008.016.015l-.026.061 1.372-3.092a.022.022 0 0 1 .017-.01l.635-1.43a.028.028 0 0 1 .027-.009c.011.001.019.008.016.014l-.898 2.024a.04.04 0 0 1 .01 0c.013.001.02.007.017.014l-2.426 5.467-.212.486 3.021-6.808a.017.017 0 0 1 .01-.008l.543-1.222a.027.027 0 0 1 .027-.01c.012.001.019.008.016.014l-.412.944.052-.118a.027.027 0 0 1 .027-.01c.012.002.019.008.016.015l-1.165 2.625-.112.258v.004l-.048.109-.99 2.283 1.686-3.798a.027.027 0 0 1 .026-.01c.004 0 .007.001.01.003l.002-.006a.022.022 0 0 1 .018-.01l.716-1.614a.027.027 0 0 1 .027-.01c.012.002.019.008.016.015L12.69 6.818h.002c.012.002.02.008.017.015L9.915 13.13l-.165.392 2.839-6.398a.027.027 0 0 1 .027-.01c.011.001.019.008.016.014l-.542 1.275.901-2.032a.027.027 0 0 1 .027-.01l1.006-2.267a.027.027 0 0 1 .027-.01c.011.002.018.008.015.015L12.06 8.668c.005.002.008.007.006.011l-1.145 2.582a.027.027 0 0 1-.027.009c-.003 0-.005 0-.008-.002L8.591 16.44a.027.027 0 0 1-.027.01c-.012-.001-.019-.008-.016-.014l1.195-2.706a.04.04 0 0 1-.014-.002Zm1.51-3.463h.002a.03.03 0 0 1 .01.003l.311-.731-.323.728Zm-.665.433a.04.04 0 0 1 .017-.001l.01.002 1.092-2.523-1.119 2.522Zm-6.333-.588-.332-.72.323.729.001-.002a.03.03 0 0 1 .01-.006Zm-.112.784L2.994 8.391l1.118 2.523a.04.04 0 0 1 .01-.014.028.028 0 0 1 .008-.006Zm2.013 3.58-.29-.655-.002.001a.028.028 0 0 1-.01.007l.302.647Zm1.367 3.567.018-.042-.507-1.144a.033.033 0 0 1-.012.023.026.026 0 0 1-.012.007l.513 1.156Zm.059.05-.018-.04-.019.04.019.042.018-.041Zm.423-.952-.019-.041-.373.842.018.041.374-.842Zm.128-.29a.032.032 0 0 1-.025.007.025.025 0 0 1-.013-.005l-.086.195.019.041.105-.237Zm1.658-4.051-.51 1.15a.023.023 0 0 1-.008.007.023.023 0 0 1-.01.003l-.847 1.908a.028.028 0 0 1-.027.01c-.011-.002-.019-.008-.016-.015l1.423-3.206.616-1.42a.03.03 0 0 1-.009 0 .025.025 0 0 1-.012-.005l-2.481 5.59.064.145 1.817-4.167Zm-.194 1.152h-.001a.028.028 0 0 1-.012-.003l-.277.658.29-.655Zm3.907-7.961a.027.027 0 0 0-.026.01l-2.626 5.917.178-.51c.002-.006-.006-.012-.017-.013a.027.027 0 0 0-.026.01l-2.658 5.99c-.003.006.004.012.016.014a.027.027 0 0 0 .027-.01l2.449-5.52-.178.51c-.002.007.005.013.017.014a.027.027 0 0 0 .026-.01l2.835-6.388c.003-.006-.005-.013-.017-.014Zm-8.566 5.053c-.004-.006-.013-.004-.022.004a.028.028 0 0 0-.01.026l2.656 5.992c.003.006.013.005.022-.003a.028.028 0 0 0 .01-.027l-2.447-5.52.258.472c.003.006.012.004.02-.004a.027.027 0 0 0 .011-.026L2.59 5.566c-.003-.006-.012-.005-.021.004a.028.028 0 0 0-.01.026l2.624 5.919-.258-.473ZM3.202 6.6c-.003-.007-.012-.005-.021.003a.028.028 0 0 0-.01.027l2.535 5.72c.003.006.013.005.021-.003a.038.038 0 0 0 .011-.019l.906 2.01c.003.007.013.006.022-.003a.028.028 0 0 0 .01-.026L2.963 5.934c-.003-.006-.012-.005-.021.003a.028.028 0 0 0-.01.027L3.9 8.15 3.202 6.6Zm3.75 4.467a.015.015 0 0 0 .006-.014l-1.372-3.22.135.257c.002.003.007.002.012-.002a.015.015 0 0 0 .006-.014l-1.39-3.26c0-.003-.006-.003-.01.002-.005.004-.008.01-.006.014l1.279 3.004-.136-.258c-.001-.003-.006-.002-.011.002a.015.015 0 0 0-.006.014L6.94 11.07c.002.003.007.003.012-.002ZM4.306 4.242l-.174-.408c-.001-.004.001-.01.006-.015.005-.004.01-.005.012-.001l.138.325c.005-.003.009-.003.01 0l.336.788a.018.018 0 0 1 .006-.012.014.014 0 0 1 .007-.004l-.472-1.107a.015.015 0 0 1 .006-.014c.005-.005.01-.005.012-.002l.254.597c.005-.003.01-.004.01 0l1.167 2.69-.266-.626a.012.012 0 0 1 .002-.01l-.442-1.04a.015.015 0 0 1 .006-.014c.004-.004.01-.005.011-.001l.743 1.745.335.767.003-.004a.014.014 0 0 1 .006-.003L4.714 4.822c-.001-.004.001-.01.006-.015.005-.004.01-.005.011-.001l.423.97c.005-.003.01-.004.011 0l.497 1.165.132.305A.022.022 0 0 1 5.8 7.24c.004-.005.01-.005.011-.002l.815 1.914c.002.003-.001.01-.006.014a.013.013 0 0 1-.007.004l1.15 2.698c0 .003 0 .006-.002.008a.015.015 0 0 1-.005.007c-.004.004-.01.005-.011.001l-1.03-2.36a.026.026 0 0 1-.002.004c-.005.004-.01.005-.012.001l-.014-.033.716 1.682a.012.012 0 0 1-.002.01l.331.78v.007a.015.015 0 0 1-.006.007c-.004.004-.01.005-.011.001l-.47-1.101a.024.024 0 0 1-.003.005c-.005.004-.01.005-.012 0L5.962 7.915l-.114-.263 1.578 3.705a.01.01 0 0 1 0 .007l.283.665-.001.008a.015.015 0 0 1-.005.007c-.005.004-.01.005-.011.001l-.222-.511.028.064-.001.008a.015.015 0 0 1-.005.007c-.005.004-.01.005-.012.001l-.608-1.428-.061-.14-.001-.001-.026-.06-.537-1.232.88 2.067a.015.015 0 0 1-.006.014.017.017 0 0 1-.004.003l.001.003a.012.012 0 0 1-.003.01l.375.88c.001.003-.001.01-.006.014s-.01.005-.012 0l-.556-1.304v.001c-.006.004-.01.005-.012.001l-1.46-3.427-.095-.21 1.484 3.482c.001.004-.001.01-.006.014-.005.005-.01.005-.012.002l-.304-.684.471 1.106a.015.015 0 0 1-.005.014l.525 1.234c.002.003 0 .01-.006.014-.004.004-.01.005-.011.001L6.419 9.51c-.003.001-.006 0-.007-.002l-.598-1.404v-.008a.015.015 0 0 1 .006-.007.018.018 0 0 1 .003-.002L4.624 5.272a.015.015 0 0 1 .006-.014c.005-.005.01-.005.011-.002l.63 1.47.002-.002a.019.019 0 0 1 .004-.002l-.75-1.76c-.002-.004 0-.01.006-.015.005-.004.01-.005.011-.001l.079.184v.001l.355.79-.458-1.074a.016.016 0 0 1 .006-.014c.005-.005.01-.005.012-.002l.055.127-.29-.682a.015.015 0 0 1 .005-.015l-.003-.01a.01.01 0 0 1 .001-.01Zm1.777 4.357.174.393-.169-.396a.016.016 0 0 1-.005.003Zm.067-.422.594 1.362-.584-1.373a.022.022 0 0 1-.006.008.016.016 0 0 1-.004.002ZM5.09 6.225l.152.357a.015.015 0 0 1 .006-.004l-.158-.353Zm1.539 4.279a.015.015 0 0 0 .006-.015L5.309 7.377c-.001-.004-.007-.003-.011.002a.02.02 0 0 0-.006.01l-.474-1.095c-.002-.003-.007-.002-.012.002s-.007.01-.006.014l1.941 4.557c.002.003.007.003.012-.002.005-.004.007-.01.006-.014l-.507-1.19.366.844c.001.004.006.003.011-.001Zm-.183-.224c.005-.005.008-.011.006-.014L5.581 8.22a.016.016 0 0 0 .005-.003.015.015 0 0 0 .006-.014L4.33 5.243c-.002-.004-.007-.003-.012.001l-.002.003-.264-.614c-.002-.003-.007-.003-.012.002-.004.004-.007.01-.006.014l2.4 5.632c.001.004.006.003.011-.001ZM9.881 7.7l.772-1.75a.015.015 0 0 1 .014-.005c.007 0 .01.004.01.008l-.082.183v.002l-.334.798.47-1.068a.014.014 0 0 1 .015-.005c.007 0 .01.004.009.008l-.055.127.3-.679a.015.015 0 0 1 .014-.005l.005-.01.003-.003a.01.01 0 0 1 .005-.002l.179-.405a.015.015 0 0 1 .014-.005c.007 0 .01.004.009.007l-.143.324c.005 0 .008.004.007.007l-.346.784a.017.017 0 0 1 .014-.004.01.01 0 0 1 .007.003l.485-1.101a.014.014 0 0 1 .015-.005c.006 0 .01.004.008.007l-.262.594c.006.001.01.004.008.008l-1.166 2.69.274-.623a.012.012 0 0 1 .005-.003.012.012 0 0 1 .005-.002l.455-1.032a.014.014 0 0 1 .014-.005c.007 0 .011.004.01.007L9.853 8.28l-.33.769h.004c.002 0 .005 0 .007.002L10.88 6a.015.015 0 0 1 .014-.005c.007 0 .011.004.01.007l-.42.973c.006 0 .01.004.008.007l-.51 1.159-.133.305h.007c.006 0 .01.004.008.007l-.839 1.903a.015.015 0 0 1-.014.005.013.013 0 0 1-.008-.003L7.82 13.04a.014.014 0 0 1-.014.005c-.007 0-.011-.004-.01-.008l1.019-2.364H8.81c-.006 0-.01-.004-.009-.008l.014-.033-.737 1.673a.013.013 0 0 1-.005.004.011.011 0 0 1-.005.001l-.341.774a.015.015 0 0 1-.015.005c-.006 0-.01-.004-.008-.008l.483-1.095h-.006c-.007 0-.01-.004-.01-.007l1.306-2.958.114-.263-1.625 3.684a.008.008 0 0 1-.003.003.009.009 0 0 1-.003.001l-.292.661a.015.015 0 0 1-.014.006c-.007-.001-.01-.005-.01-.008l.223-.51-.029.063a.015.015 0 0 1-.014.005c-.006 0-.01-.004-.009-.007l.627-1.42.06-.14v-.002l.026-.06L9.06 9.8l-.906 2.054a.015.015 0 0 1-.015.006l-.005-.002v.003a.013.013 0 0 1-.005.004.011.011 0 0 1-.005.001l-.386.874a.014.014 0 0 1-.014.005c-.007 0-.01-.004-.009-.007l.572-1.298h-.001c-.006 0-.01-.004-.009-.008L9.78 8.024l.09-.212-1.528 3.462a.015.015 0 0 1-.014.005c-.007 0-.01-.004-.01-.007l.292-.69-.485 1.1a.015.015 0 0 1-.014.005l-.54 1.226a.015.015 0 0 1-.015.005c-.007 0-.01-.004-.009-.007l1.08-2.472c-.004-.001-.005-.004-.004-.006l.616-1.397a.015.015 0 0 1 .014-.005l.005.001 1.234-2.798a.015.015 0 0 1 .014-.005c.007 0 .01.004.01.007L9.873 7.7h.003l.004.001Zm-.813 1.874c-.003 0-.004 0-.006-.002l-.167.396.173-.394Zm.36-.235h-.015l-.588 1.364.602-1.364Zm.531-1.76.007.003.15-.357-.157.355ZM7.857 11.89a.014.014 0 0 0 .014-.005l1.412-3.202-.095.275c-.001.004.003.007.01.008a.014.014 0 0 0 .013-.005l1.43-3.241c.001-.004-.002-.008-.009-.008a.015.015 0 0 0-.014.005L9.3 8.703l.096-.276c.001-.004-.003-.007-.01-.008a.014.014 0 0 0-.014.006L7.848 11.88c-.002.004.002.007.009.008Zm.012-.286a.014.014 0 0 0 .015-.005l.521-1.183-.366.844c-.001.003.003.007.01.008a.014.014 0 0 0 .014-.006l1.365-3.094c.001-.004-.003-.007-.01-.008a.02.02 0 0 0-.01.002l.474-1.093c.002-.004-.002-.007-.009-.008a.015.015 0 0 0-.014.005l-1.999 4.53c-.001.004.003.007.01.008Zm.219-.625h.007a.015.015 0 0 0 .007-.005l.897-2.034.006.002a.015.015 0 0 0 .014-.005l1.298-2.943c.002-.004-.002-.008-.008-.008h-.004l.267-.612c.002-.004-.002-.007-.009-.008a.015.015 0 0 0-.014.005l-2.47 5.6c-.002.004.002.007.008.008Z"/>
    <path fill="#231F20" d="M9.946 11.714h.001l.007.002.19-.445-.198.443Zm-.405.264a.024.024 0 0 1 .01-.001.02.02 0 0 1 .006.002l.666-1.537-.682 1.536Zm-2.699 2.299-.176-.399h-.001a.017.017 0 0 1-.006.005l.183.394Zm.833 2.172.011-.026-.309-.696a.02.02 0 0 1-.007.014.015.015 0 0 1-.007.004l.312.704Zm.036.03-.011-.025-.012.026.012.025.01-.025Zm.257-.58-.011-.024-.227.512.01.025.228-.512Zm.078-.176a.02.02 0 0 1-.015.004.015.015 0 0 1-.007-.002l-.053.118.011.025.064-.145Zm1.01-2.466-.311.7a.014.014 0 0 1-.005.004.014.014 0 0 1-.006.002l-.515 1.162a.016.016 0 0 1-.017.005c-.007 0-.011-.004-.01-.008l.867-1.953.375-.864h-.005a.017.017 0 0 1-.008-.003l-1.51 3.404.038.088 1.107-2.537Zm-.118.701h-.001a.017.017 0 0 1-.007-.002l-.169.4.177-.398Zm-.314-2.664a.01.01 0 0 1-.004-.001l-.102.24.106-.239Zm.218-.143h-.008l-.358.83.366-.83Zm.324-1.071.004.001.091-.217-.095.216Zm-1.272 2.449h.005a.01.01 0 0 0 .003-.003l.318-.72-.223.513c0 .002.002.004.006.005h.005a.009.009 0 0 0 .003-.003l.832-1.884c0-.002-.002-.005-.006-.005l-.007.001.29-.666c0-.002-.002-.004-.006-.004a.009.009 0 0 0-.009.003l-1.217 2.758c0 .003.002.005.006.005Zm.133-.38.004-.001a.009.009 0 0 0 .004-.003l.547-1.238.003.001a.009.009 0 0 0 .009-.003l.79-1.792c.001-.002-.001-.005-.005-.005h-.002l.162-.373c.001-.002 0-.004-.005-.004a.009.009 0 0 0-.009.003l-1.504 3.41c0 .002.002.004.006.004Z"/>
    <path fill="#FBFBFB" d="M22.423 20.947c0 .86-.213 1.608-.633 2.22-.42.614-1.005 1.082-1.738 1.394-.716.304-1.536.458-2.436.458a7.392 7.392 0 0 1-2.363-.394c-.8-.27-1.367-.57-1.735-.92l-.196-.185 1.356-2.302.341.292c.235.201.618.419 1.14.646.508.222.998.334 1.457.334.581 0 1.055-.127 1.409-.377.325-.23.483-.541.483-.952 0-.332-.088-.61-.27-.85a2.577 2.577 0 0 0-.727-.649 16.67 16.67 0 0 0-1.359-.704c-.736-.342-1.23-.595-1.509-.77-1.32-.838-1.988-2.014-1.988-3.497 0-1.234.445-2.198 1.323-2.864.853-.648 1.937-.976 3.221-.976 1.373 0 2.559.38 3.525 1.13l.242.187-1.4 2.276-.336-.335c-.202-.201-.5-.38-.883-.534a3.342 3.342 0 0 0-1.242-.231c-.54 0-.961.11-1.25.326-.268.2-.398.499-.398.914-.004.285.091.563.268.784.199.256.455.483.761.673.336.208.8.467 1.38.77.562.297 1.003.536 1.31.712a5.2 5.2 0 0 1 .906.656c.394.335.72.744.963 1.205.251.474.378 1 .378 1.563Z"/>
    <g opacity=".31">
      <path fill="#FBFBFB" d="M17.663 25.146a7.54 7.54 0 0 1-2.883-.577c-.8-.33-1.363-.678-1.722-1.066l-.26-.281 1.656-2.44.44.43c.21.207.569.44 1.063.696.475.246.938.386 1.378.415.08.005.16.008.236.008.446 0 .82-.091 1.113-.27.302-.186.453-.442.476-.807a1.215 1.215 0 0 0-.191-.776 2.447 2.447 0 0 0-.648-.659 16.552 16.552 0 0 0-1.3-.785c-.717-.393-1.199-.68-1.47-.878-1.305-.954-1.918-2.214-1.82-3.746.082-1.279.608-2.248 1.566-2.88.802-.53 1.771-.8 2.88-.8.157 0 .319.006.48.017 1.402.093 2.589.562 3.529 1.396l.324.287-1.716 2.427-.43-.487c-.176-.2-.446-.388-.802-.558a3.211 3.211 0 0 0-1.405-.308c-.4 0-.721.077-.955.229-.243.157-.367.403-.39.774-.02.253.048.504.192.71.173.256.403.487.683.687.32.228.763.516 1.318.855.545.334.971.603 1.268.8.319.211.615.457.884.732.383.373.693.817.913 1.308l.005.012c.226.508.322 1.06.285 1.642-.057.888-.327 1.646-.803 2.253-.475.605-1.11 1.05-1.887 1.32-.61.213-1.284.32-2.007.32Z"/>
      <path fill="#FBFBFB" d="M18.177 10.872c.155 0 .312.005.472.015 1.37.091 2.53.55 3.446 1.362l.229.202-1.542 2.18-.314-.357c-.189-.215-.474-.414-.847-.591a3.346 3.346 0 0 0-1.463-.322c-.428 0-.774.084-1.03.251-.28.182-.429.471-.455.885-.022.285.055.568.217.8.182.27.424.512.717.722.323.23.769.52 1.327.86.543.334.968.602 1.263.797.312.207.6.447.863.716.371.36.671.79.884 1.266.22.49.313 1.023.277 1.585-.054.858-.314 1.59-.773 2.174-.458.583-1.071 1.012-1.823 1.274a5.935 5.935 0 0 1-1.961.313 7.404 7.404 0 0 1-2.831-.567c-.781-.322-1.329-.66-1.674-1.032l-.183-.198 1.5-2.208.321.315c.222.216.59.458 1.097.72.492.255.974.4 1.432.43.084.005.165.008.245.008.472 0 .87-.098 1.185-.29.34-.209.517-.51.543-.92a1.353 1.353 0 0 0-.215-.864 2.586 2.586 0 0 0-.684-.697c-.302-.21-.744-.476-1.312-.792-.713-.391-1.19-.675-1.456-.87-1.264-.923-1.856-2.14-1.762-3.62.079-1.232.584-2.164 1.502-2.77.782-.517 1.723-.777 2.805-.777m0-.284c-1.136 0-2.13.277-2.956.822a3.479 3.479 0 0 0-1.158 1.252c-.27.498-.428 1.083-.47 1.738-.05.787.084 1.515.4 2.164.314.645.81 1.22 1.477 1.706.277.201.763.492 1.486.888.56.312.993.574 1.287.778.24.165.448.376.61.62.133.2.186.418.169.688-.02.32-.147.533-.41.694-.27.166-.62.25-1.04.25-.074 0-.15-.002-.228-.007-.42-.028-.866-.163-1.324-.4-.476-.245-.832-.478-1.03-.672l-.322-.314-.235-.23-.186.273-1.5 2.208-.128.189.155.167.183.198c.373.402.953.762 1.772 1.1a7.676 7.676 0 0 0 2.935.588 6.22 6.22 0 0 0 2.051-.328c.802-.28 1.459-.74 1.95-1.366.495-.63.775-1.415.834-2.333a3.6 3.6 0 0 0-.301-1.72l-.001-.001a4.377 4.377 0 0 0-.943-1.35 5.59 5.59 0 0 0-.905-.751 45.5 45.5 0 0 0-1.271-.802 22.633 22.633 0 0 1-1.311-.85 2.593 2.593 0 0 1-.648-.65.946.946 0 0 1-.169-.621c.027-.423.2-.582.327-.665.21-.137.507-.206.88-.206a3.075 3.075 0 0 1 1.346.295c.34.161.595.338.759.524l.314.356.23.262.201-.285 1.542-2.18.149-.21-.192-.17-.229-.202c-.963-.854-2.178-1.335-3.61-1.43a7.475 7.475 0 0 0-.49-.017Z"/>
    </g>
    <g opacity=".31" style="mix-blend-mode:overlay">
      <path fill="#FBFBFB" d="M17.688 25.672a7.285 7.285 0 0 1-1.566-.174c-.85-.188-1.472-.443-1.9-.779l-.305-.239 1.152-2.884.524.37c.247.174.643.349 1.177.519.381.121.747.183 1.087.183.114 0 .228-.007.34-.022.547-.07.973-.252 1.268-.54.261-.254.36-.555.312-.946a1.359 1.359 0 0 0-.342-.783 2.478 2.478 0 0 0-.762-.562 16.005 16.005 0 0 0-1.428-.566c-.78-.27-1.309-.477-1.614-.63-1.465-.742-2.31-1.94-2.51-3.563-.168-1.353.16-2.471.976-3.323.785-.82 1.845-1.32 3.152-1.49.28-.036.562-.054.844-.055a5.32 5.32 0 0 1 2.896.822l.369.234-1.214 2.884-.524-.433c-.212-.175-.513-.318-.895-.425a2.95 2.95 0 0 0-1.206-.083c-.503.065-.878.221-1.114.464-.206.212-.282.505-.233.897.029.268.145.52.33.713.23.242.502.44.802.584.357.177.848.39 1.46.636.598.242 1.069.44 1.398.587.357.161.696.36 1.01.595a4.43 4.43 0 0 1 1.148 1.186l.002.004c.324.49.527 1.052.604 1.67.116.94-.002 1.787-.35 2.516a4.15 4.15 0 0 1-1.597 1.76c-.688.424-1.5.698-2.413.816a6.89 6.89 0 0 1-.878.057Z"/>
      <path fill="#FBFBFB" d="M18.092 10.335c1.036 0 1.982.268 2.82.8l.265.168-1.09 2.59-.378-.312c-.227-.188-.545-.34-.946-.452a3.083 3.083 0 0 0-.836-.114 3.36 3.36 0 0 0-.426.027c-.536.07-.94.24-1.198.506-.24.246-.329.58-.274 1.018.032.3.162.58.368.797.243.255.529.463.844.615.36.177.855.393 1.47.64.597.241 1.065.438 1.393.585.348.157.678.35.985.58.439.309.817.7 1.114 1.152.31.47.506 1.011.58 1.607.112.912 0 1.73-.337 2.433a4.003 4.003 0 0 1-1.542 1.698c-.67.414-1.463.682-2.357.797a6.714 6.714 0 0 1-.86.055 7.12 7.12 0 0 1-1.535-.17c-.83-.183-1.432-.429-1.843-.752l-.218-.17 1.043-2.613.377.266c.259.183.668.364 1.216.539.396.126.774.19 1.13.19.12 0 .24-.008.358-.023.577-.075 1.03-.27 1.349-.58.292-.285.409-.635.355-1.07a1.501 1.501 0 0 0-.38-.865 2.62 2.62 0 0 0-.806-.595c-.337-.16-.822-.352-1.44-.572-.777-.268-1.3-.472-1.599-.623-1.419-.718-2.237-1.878-2.431-3.449-.162-1.307.153-2.384.936-3.202.762-.796 1.794-1.282 3.068-1.447a6.71 6.71 0 0 1 .825-.054m0-.293c-.288 0-.575.02-.861.057-1.34.172-2.43.688-3.237 1.532a3.71 3.71 0 0 0-.893 1.539c-.167.573-.209 1.214-.123 1.905.103.83.375 1.564.808 2.179.433.614 1.032 1.117 1.78 1.496.312.156.845.365 1.633.638.61.216 1.084.404 1.413.56.27.128.514.308.718.53.171.185.268.408.304.7.042.342-.043.603-.269.822-.272.266-.671.435-1.186.501a2.54 2.54 0 0 1-.322.02c-.326 0-.677-.06-1.044-.176-.52-.166-.904-.334-1.139-.5l-.376-.266-.295-.207-.135.338-1.043 2.612-.082.207.173.136.218.17c.446.35 1.086.614 1.957.806.525.117 1.06.176 1.597.177.299 0 .598-.019.895-.057.934-.12 1.765-.402 2.47-.837a4.293 4.293 0 0 0 1.65-1.82c.362-.755.484-1.63.364-2.598a4.006 4.006 0 0 0-.626-1.735l-.002-.002a4.575 4.575 0 0 0-1.184-1.226 5.563 5.563 0 0 0-1.036-.608 42.02 42.02 0 0 0-1.403-.59 22.089 22.089 0 0 1-1.45-.631 2.62 2.62 0 0 1-.762-.554 1.069 1.069 0 0 1-.29-.63c-.058-.459.082-.662.192-.776.213-.219.56-.36 1.03-.421a2.806 2.806 0 0 1 1.15.078c.363.102.646.236.843.398l.377.312.295.243.15-.356 1.09-2.59.097-.231-.21-.133-.264-.168a5.458 5.458 0 0 0-2.972-.844Z"/>
    </g>
    <path fill="#FBFBFB" d="m11.864 22.622.03-.062-.03.062Zm.105-.216v.004l.012-.005a.466.466 0 0 1 .014-.045l-.007.009-.018.037Zm.032-.07-.019.04.019-.04Zm-.081.172.002-.004v-.002l-.002.005Zm0-.001-.003.006.003-.006Zm-.025.051-.001.002.001-.002.016-.032.006-.013-.002.004.002-.004.003-.007.002-.003.01-.02.01-.021.003-.006.019-.039.006-.015v.004a.253.253 0 0 1 .018-.037l-.002.002-.003.005-.002.005-.006.01.007-.014a.126.126 0 0 0-.008.014c-.002.003-.002.007-.003.01l-.027.057-.001.002-.022.046-.004.007.003-.02c0-.003-.004.001-.01.01a.091.091 0 0 0-.011.02l-.004.035-.051.105.051-.105Zm-.075.153-.016.033.016-.031v-.002Zm.213-.448-.033.073.02-.043.013-.03Zm-.204.432v-.001l.001-.002-.001.002v.001Zm10.386-1.628a4.958 4.958 0 0 1-.116.964c-.07.302-.175.594-.312.871-.036.068-.07.134-.107.2l-.12.188c-.04.062-.089.12-.133.178l-.067.086-.072.083-.022.024c-.2.224-.423.426-.663.604a.02.02 0 0 1 .008.006.018.018 0 0 1 .004.006.018.018 0 0 1-.002.014.016.016 0 0 1-.005.005 3.936 3.936 0 0 1-.283.186c-.092.057-.186.104-.28.152-.183.09-.373.167-.568.23-.379.126-.759.19-1.129.224-.742.06-1.453-.021-2.134-.169a.022.022 0 0 1-.013-.022.018.018 0 0 1 .005-.014 11.28 11.28 0 0 1-2.696-.988 8.402 8.402 0 0 1-1.149-.705 2.587 2.587 0 0 1-.423-.382c-.05-.061-.085-.121-.08-.164l.002-.008v-.005l-.015.032-.004.008.002-.005-.002.005.004-.008v-.002l.001-.001.01-.018.006-.013v-.001l-.004.008v-.002l.005-.007v-.001l.002-.004-.001.003.003-.002.007-.005v.001c.001.01.005.022.008.033.004.013.01.025.017.035a.27.27 0 0 0 .024.038c.075.104.2.219.338.329.28.222.618.433.97.627.732.4 1.504.717 2.302.95v-.007c0-.01.007-.017.014-.015l.07.02A11.546 11.546 0 0 1 13.951 24a9.423 9.423 0 0 1-1.469-.842.02.02 0 0 1-.005-.018 2.812 2.812 0 0 1-.495-.436l-.037-.052c-.011-.017-.018-.033-.027-.049a.093.093 0 0 1-.01-.031.01.01 0 0 1-.007.003l-.01.006.002-.019-.012.025.005-.009.007-.016.021-.043.001-.002v.001l.002-.001.004-.002a.227.227 0 0 0 .006.038c.033.086.133.193.245.296.231.208.53.411.843.6l.001-.01c.003-.01.01-.015.017-.011.438.26.894.49 1.363.686.483.204.98.374 1.487.508a8.24 8.24 0 0 0 1.583.261 5.411 5.411 0 0 0 1.672-.144 4.14 4.14 0 0 0 .604-.207c-.705.299-1.418.376-2.096.357a8.256 8.256 0 0 1-1.97-.327 11.333 11.333 0 0 1-2.647-1.14 6.377 6.377 0 0 1-.73-.505.014.014 0 0 1-.001-.006 2.57 2.57 0 0 1-.205-.187.74.74 0 0 1-.137-.178.193.193 0 0 1-.016-.04.075.075 0 0 0 .006-.003.92.92 0 0 1 .005-.029l-.01.004-.004.002c0-.005.001-.01.003-.014l.005-.011a.044.044 0 0 1 .008-.01l.002.01c0-.004.002-.009.004-.013a.069.069 0 0 1 .013-.007l-.006.028c0 .005-.004.006-.008.008a.655.655 0 0 0 .167.228c-.022-.024-.047-.047-.066-.07a.03.03 0 0 1 .002-.025c.004-.01.01-.015.013-.01.113.13.278.265.455.396.178.13.373.257.577.378a11.014 11.014 0 0 0 1.573.762h.005l.115.046c.81.3 1.662.52 2.551.585a8.928 8.928 0 0 1-2.14-.458 11.394 11.394 0 0 1-1.942-.868.023.023 0 0 1-.006-.025.01.01 0 0 1 .003-.007l-.005-.003a.02.02 0 0 1-.007-.017 7.556 7.556 0 0 1-.714-.46 3.976 3.976 0 0 1-.3-.243 1.182 1.182 0 0 1-.21-.238.034.034 0 0 1 .004-.024c.004-.01.01-.015.011-.011.068.11.2.235.348.355.157.127.321.244.491.353.368.234.75.444 1.144.628v-.002c.003-.01.01-.017.017-.014.519.245 1.055.45 1.604.611.555.162 1.128.28 1.717.326a5.26 5.26 0 0 0 1.805-.154 3.774 3.774 0 0 0 1.752-1.054c.067-.07.127-.145.19-.222l.045-.059.042-.061.082-.126c.031-.052.061-.106.09-.161a3.12 3.12 0 0 1-.456.625 3.717 3.717 0 0 1-1.662 1.026 5.023 5.023 0 0 1-1.721.19 8.024 8.024 0 0 1-1.644-.27 10.961 10.961 0 0 1-1.547-.544.023.023 0 0 1-.008-.01.023.023 0 0 1-.001-.014c.002-.01.009-.017.015-.014.439.185.888.341 1.346.468a11.218 11.218 0 0 1-2.097-.852.023.023 0 0 1-.007-.024 7.987 7.987 0 0 1-1.011-.628 2.863 2.863 0 0 1-.39-.34.688.688 0 0 1-.117-.159l-.013-.035a.055.055 0 0 1-.001-.021l.015-.032c0 .006 0 .012.003.018l.012.035a.711.711 0 0 0 .119.16c.103.111.242.227.392.338.323.234.663.443 1.017.626.75.395 1.54.702 2.358.916a.01.01 0 0 1 .005-.006.01.01 0 0 1 .007 0c.47.123.95.204 1.436.24a5.21 5.21 0 0 0 1.49-.097.021.021 0 0 1 .021.015.022.022 0 0 1 .001.007 3.87 3.87 0 0 0 .969-.358c.163-.087.32-.187.469-.298a3.94 3.94 0 0 0 .437-.39c.075-.074.14-.157.21-.24.035-.042.062-.087.094-.131.03-.045.064-.09.09-.137a2.79 2.79 0 0 0 .153-.292c.048-.101.09-.206.127-.312a4.2 4.2 0 0 0 .213-1.4 7.182 7.182 0 0 0-.017-.369l-.013-.176-.02-.174c-.012-.119-.034-.232-.053-.35a7.14 7.14 0 0 0-.073-.347l-.044-.173-.006-.022a.072.072 0 0 0-.004-.013l-.01-.022-.043-.09c-.03-.06-.06-.12-.093-.172a2.788 2.788 0 0 0-.207-.3 3.567 3.567 0 0 0-.107-.127l-.055-.06-.052-.054a4.864 4.864 0 0 0-.778-.63.02.02 0 0 1-.003-.008.021.021 0 0 1 .002-.017.022.022 0 0 1 .03-.003c.206.136.403.287.589.45.212.19.455.439.656.797.025.047.05.094.072.14l.033.072a.05.05 0 0 1 .005.012l.002.009.004.016.035.135c.023.089.042.18.06.27.02.089.036.18.05.27a5.794 5.794 0 0 1 .063 1.404c-.029.363-.109.72-.237 1.06h.005a.02.02 0 0 1 .007.004c.154-.411.24-.845.254-1.285.002-.114.007-.23 0-.346l-.007-.176-.011-.165a6.297 6.297 0 0 0-.153-.976l-.04-.16-.011-.04-.005-.021-.003-.01-.009-.02a3.407 3.407 0 0 0-.083-.17c-.03-.058-.06-.104-.091-.156a2.162 2.162 0 0 0-.098-.145 3.899 3.899 0 0 0-.101-.133 4.368 4.368 0 0 0-.1-.117l-.052-.056-.05-.051a4.685 4.685 0 0 0-.1-.1l-.097-.087-.049-.043-.046-.038a6.515 6.515 0 0 0-.677-.485c-.204-.13-.391-.24-.568-.342a.02.02 0 0 1-.008-.027c0-.002.002-.004.004-.006a.018.018 0 0 1 .006-.003c.002-.001.005-.002.007-.001a18.096 18.096 0 0 1 .486.287c.185.11.382.235.603.4a4.641 4.641 0 0 1 .348.285c.029.026.063.059.094.089a4.12 4.12 0 0 1 .189.2l.046.054.049.06a3.26 3.26 0 0 1 .184.264l.043.072a2.468 2.468 0 0 1 .12.236c.027.1.054.197.078.296.047.197.086.395.115.594a6.375 6.375 0 0 0-.158-.798l-.013-.05-.007-.024-.003-.013a3.471 3.471 0 0 0-.111-.23 3.23 3.23 0 0 0-.118-.191 2.629 2.629 0 0 0-.125-.172 3.608 3.608 0 0 0-.5-.515 5.704 5.704 0 0 0-.442-.337 9.214 9.214 0 0 0-.39-.253c-.245-.152-.467-.278-.674-.397a.021.021 0 0 1-.008-.026l.004-.006a.016.016 0 0 1 .006-.004.015.015 0 0 1 .006-.001c.003 0 .005 0 .007.002l.309.175-.778-.447a9.44 9.44 0 0 1-.636-.402.023.023 0 0 1-.006-.013c0-.004 0-.009.002-.013v-.002l-.015-.011a.018.018 0 0 1-.006-.014c-.219-.156-.395-.312-.497-.454l-.001-.013c0-.004.002-.008.004-.011.004-.01.01-.015.013-.011.08.113.207.235.367.358.005-.008.01-.01.016-.007.096.075.204.15.321.226.117.077.242.154.375.233.266.159.563.323.897.517a.02.02 0 0 1-.006-.012c0-.004 0-.009.002-.013a.018.018 0 0 1 .01-.009l-.652-.372a14.37 14.37 0 0 1-.553-.333c-.335-.214-.611-.428-.751-.622a.031.031 0 0 1-.001-.012.03.03 0 0 1 .003-.012c.005-.01.01-.014.013-.01.149.208.459.439.83.671.004-.009.012-.012.018-.009.209.128.438.259.692.401l.4.226c.142.081.292.168.451.266.16.099.335.21.526.35.226.162.437.346.63.549a3.216 3.216 0 0 1 .42.555c.025.042.051.092.076.138l.07.143.017.063c.022.084.045.166.065.25l.056.251.046.253c.014.085.025.171.036.255.02.172.035.336.045.53.02.362 0 .726-.059 1.083a3.82 3.82 0 0 1-.3.98 3.228 3.228 0 0 1-.385.629l-.073.095-.08.09c-.05.054-.098.107-.15.157.052-.05.101-.103.151-.157.046-.05.089-.1.13-.154.041-.053.085-.106.124-.161l.113-.172c.039-.058.068-.12.102-.18a3.56 3.56 0 0 0 .304-.793.022.022 0 0 1 .006-.01.021.021 0 0 1 .01-.005c.07-.272.112-.55.128-.832.012-.144.01-.288.01-.436l-.011-.221-.008-.111-.008-.103a6.514 6.514 0 0 0-.213-1.207l-.027-.1a.087.087 0 0 0-.005-.015l-.013-.028-.028-.057a4.054 4.054 0 0 0-.12-.221 2.673 2.673 0 0 0-.198-.288c-.015-.02-.019-.039-.008-.043.01-.003.032.01.047.03a3.096 3.096 0 0 1 .299.472.875.875 0 0 1 .064.145c.028.103.057.203.08.306.048.206.088.411.117.62.014.104.028.206.037.313l.014.158.01.17.009.171v.17c0 .113-.005.225-.013.335a4.267 4.267 0 0 1-.275 1.248c-.041.096-.08.19-.126.282l-.071.134a2.661 2.661 0 0 1-.247.377c-.061.08-.12.157-.187.229a4.24 4.24 0 0 1-.315.314 4.083 4.083 0 0 1-.645.479l-.109.063-.11.057a4.33 4.33 0 0 1-.893.335.026.026 0 0 1 .004.007.02.02 0 0 1 0 .012c.377-.092.74-.235 1.08-.425a4.143 4.143 0 0 0 1.018-.827c.09-.098.168-.206.25-.314.074-.113.152-.227.213-.35.068-.12.12-.248.175-.378.05-.133.094-.268.13-.405.04-.139.066-.28.093-.425.02-.145.042-.293.049-.442a4.94 4.94 0 0 0 .01-.457c0-.076-.006-.154-.01-.231l-.007-.117-.01-.108a6.58 6.58 0 0 0-.124-.843l-.047-.208-.055-.207-.014-.052-.007-.026-.002-.006-.007-.015-.014-.03a3.373 3.373 0 0 0-.126-.238 4.007 4.007 0 0 0-.138-.214 4.103 4.103 0 0 0-.143-.188 4.053 4.053 0 0 0-.559-.552 6.247 6.247 0 0 0-.48-.355 13.384 13.384 0 0 0-.779-.474.02.02 0 0 1-.008-.027.019.019 0 0 1 .01-.01h.008l.007.002c.213.121.445.254.711.425.064.04.137.09.206.138l.11.078a4.592 4.592 0 0 1 .612.523 3.342 3.342 0 0 1 .586.815l.027.056.014.029.006.013.001.005.027.096.052.189c.063.253.112.51.147.77a.02.02 0 0 1 .014.004.02.02 0 0 1 .006.013c.011.076.018.155.025.232a7.308 7.308 0 0 1 .033.746Zm-.571 1.02h.001a.018.018 0 0 1 .01.007c.09-.355.136-.72.135-1.085a4.313 4.313 0 0 1-.146 1.078Zm-3.85 2.55v-.012a6.64 6.64 0 0 1-.838-.05c.278.039.558.06.838.062ZM11.9 22.55v-.001l-.002.005.002-.004Zm6.568 2.453a.025.025 0 0 1-.007-.013v-.009a6.43 6.43 0 0 1-1.538-.021 9.235 9.235 0 0 1-1.453-.31c.476.146.963.254 1.455.321.5.066 1.015.089 1.543.032Zm-6.62-2.35a12.8 12.8 0 0 1 .013-.026v-.002l-.013.028Zm-.012.025.01-.019a6.05 6.05 0 0 1 .018-.038l-.028.057Zm.003-.005.002-.003-.002.004-.001.001-.004.01-.003.005-.001.002-.002.002v.003a.818.818 0 0 1-.006.01l.005-.01-.001.002-.003.006v.001l-.018.037.016-.034-.001.002.005-.01-.005.009.001-.002-.017.035.04-.08-.02.039a2.17 2.17 0 0 1 .012-.024l-.011.023.02-.042.003-.006-.023.047.036-.072v-.002l.034-.068c.006-.01.011-.023.017-.035l-.017.036v.002l-.008.017-.005.009-.002.005.002-.005.007-.004.004-.002-.002.012c0 .005.002.012-.002.016l-.015.009.002-.012.002-.007v-.005s.001 0 0 0l-.003.008-.007.015-.003.005.002-.003-.003.006-.005.01-.002.002.001-.001-.003.006-.004.008-.001.002-.004.008v.001l-.001.002.001-.003-.006.013v-.002.002Zm-.012.024v-.002l.003-.004a1.51 1.51 0 0 1-.003.006Zm-.003.006.001-.002-.001.002Zm.134-.275.011-.023-.01.022Zm.002-.004-.003.006.002-.003.001-.003Zm-.137.28v.002-.001Zm.22-.461-.01.02.004-.009.005-.011Zm-.05.156-.01.004h-.002l-.008.03a.09.09 0 0 1 .013-.004l.008-.03Zm-.025.01.002-.004-.012.023c-.001.005-.004.008-.004.012v.004a.097.097 0 0 1 .006-.004.466.466 0 0 1 .008-.031Zm-.054.11-.002.004.002-.005Zm.074-.151.07-.145-.07.145Zm-.04.08.009-.017-.012.024-.003.006-.006.013-.004.008-.01.02.01-.019-.002.003-.008.017-.003.005v-.001l-.002.005-.003.006.003-.006a.108.108 0 0 0-.003.006h.001l.002-.002.001-.004.003-.006.002-.004.004-.007v.001a.031.031 0 0 0-.005.018l.006-.003a.143.143 0 0 1 .013-.006.092.092 0 0 1-.003-.026l-.002.001-.003.002.008-.017v-.004l.004-.006.001-.001.01-.023-.007.017Zm9.297-1.794a5.404 5.404 0 0 0-.082-.732l-.035-.183-.042-.182c0-.039-.064-.18-.117-.277a2.468 2.468 0 0 0-.182-.28 3.024 3.024 0 0 0-.39-.414 4.687 4.687 0 0 0-.37-.294 9.68 9.68 0 0 0-.672-.435l-.007.001a.015.015 0 0 0-.006.004.016.016 0 0 0-.004.006.024.024 0 0 0-.001.005c-.238-.142-.463-.27-.675-.394a13.769 13.769 0 0 1-.595-.364c-.006-.004-.014.001-.018.01a.023.023 0 0 0 .005.026c.205.137.434.273.675.414.242.143.499.29.773.46.138.086.28.178.428.282.162.113.317.236.465.37a2.565 2.565 0 0 1 .532.67c.017.031.032.066.048.1l.022.05a.252.252 0 0 1 .017.044l.013.06c.018.078.038.154.051.233.062.307.097.62.105.934.012.311-.012.623-.071.93-.055.285-.15.56-.282.818a2.35 2.35 0 0 1-.495.647c-.19.178-.401.331-.628.456l-.08.043-.082.039-.083.039-.085.036a2.233 2.233 0 0 1-.17.064 2.03 2.03 0 0 1-.172.056 4.381 4.381 0 0 1-1.388.158c-.928-.036-1.847-.28-2.72-.622-.006-.003-.012.004-.014.014 0 .005 0 .01.002.014a.023.023 0 0 0 .008.01 9.365 9.365 0 0 0 1.94.544c.661.103 1.336.123 2.002-.034a.02.02 0 0 0 .003.01.022.022 0 0 0 .02.014c.271-.066.534-.163.783-.29a3.197 3.197 0 0 0 .946-.751c.067-.085.13-.173.186-.265.06-.093.106-.192.157-.293a3.243 3.243 0 0 0 .21-.653c.021-.115.045-.234.056-.354.016-.12.02-.243.026-.369v-.188c0-.065-.003-.126-.007-.187Zm-9.24 1.742c.001-.001 0-.004.002-.005l.005-.023a.583.583 0 0 1 .036-.09c0-.002-.003.003-.01.011a.24.24 0 0 0-.012.02.482.482 0 0 0-.032.09h.003l.007-.003Zm9.243-.994c-.01.12-.035.24-.055.355-.029.116-.053.228-.091.338a3.287 3.287 0 0 1-.12.317c-.051.102-.097.201-.157.294-.054.095-.123.181-.186.266a3.133 3.133 0 0 1-1.008.786 3.5 3.5 0 0 1-.85.293c-.574.122-1.154.114-1.723.043a8.794 8.794 0 0 1-1.678-.401 11.078 11.078 0 0 1-1.578-.68c-.006-.004-.013.002-.016.012a.024.024 0 0 0 0 .014.023.023 0 0 0 .007.011 10.79 10.79 0 0 0 2.19.865 10.57 10.57 0 0 1-1.587-.561c-.007-.003-.013.003-.015.014a.023.023 0 0 0 .008.024c.473.213.96.392 1.459.534a7.93 7.93 0 0 0 1.529.286c.517.04 1.044.02 1.565-.11.267-.068.525-.165.77-.29a3.21 3.21 0 0 0 .723-.506c.006-.006.005-.016-.004-.022a.025.025 0 0 0-.018-.005l.053-.051c.077-.075.15-.154.22-.237.062-.087.131-.175.185-.27.06-.095.106-.196.156-.298.045-.105.085-.213.12-.322.037-.11.061-.224.089-.341.02-.116.044-.236.054-.357a4.26 4.26 0 0 0 .024-.372c.002-.063 0-.126-.001-.19l-.002-.096-.005-.093-.002-.006a.016.016 0 0 0-.018-.008.02.02 0 0 0-.018.02l.005.091.001.096c0 .064.002.126 0 .189-.005.125-.01.247-.026.368Zm-9.189.801v.01a.07.07 0 0 1 0 .01 3.92 3.92 0 0 0 .015-.031.076.076 0 0 0 0-.014l.002-.012-.011.025-.003.008c0-.002-.001 0-.001 0a.008.008 0 0 0-.001.004l-.018.04.006-.013.011-.027Zm.017-.04v.003l.001-.004-.001.002Zm2.638 1.507c.503.206 1.022.372 1.551.496a6.97 6.97 0 0 0 1.626.192c.55-.007 1.114-.09 1.659-.327-.176.09-.358.167-.545.23-.007.002-.01.011-.005.02a.022.022 0 0 0 .009.011.02.02 0 0 0 .013.003c.3-.078.59-.192.865-.34.296-.164.568-.371.807-.614.187-.188.346-.403.472-.638a3.37 3.37 0 0 0 .292-.779c.069-.286.106-.58.11-.875a2.974 2.974 0 0 0 0-.229 3.372 3.372 0 0 0-.009-.229c-.004-.073-.008-.146-.015-.219l-.024-.218a6.126 6.126 0 0 0-.12-.65l-.027-.109-.014-.054a.24.24 0 0 0-.018-.044l-.025-.055a2.638 2.638 0 0 0-.49-.697 4.091 4.091 0 0 0-.489-.428 9.07 9.07 0 0 0-.82-.54c-.25-.148-.477-.277-.692-.402a.014.014 0 0 0-.013 0 .015.015 0 0 0-.005.004.016.016 0 0 0-.003.006.022.022 0 0 0-.001.014.02.02 0 0 0 .008.012c.215.125.441.254.689.401.247.149.513.31.814.536.171.128.333.27.482.423.196.2.36.43.482.684l.025.053.012.027a.115.115 0 0 1 .008.021l.014.054.027.108a6.247 6.247 0 0 1 .12.648l.023.216.015.218c.005.07.007.152.009.227.002.076.003.152 0 .228a3.97 3.97 0 0 1-.112.867 3.321 3.321 0 0 1-.291.771 2.71 2.71 0 0 1-.47.63 3.397 3.397 0 0 1-.543.448 3.613 3.613 0 0 1-.58.311c.184-.093.36-.201.525-.323.007-.005.006-.015-.001-.023a.021.021 0 0 0-.025-.005 3.807 3.807 0 0 1-1.759.571 6.324 6.324 0 0 1-1.757-.12 9.98 9.98 0 0 1-1.68-.502 10.92 10.92 0 0 1-1.545-.754c-.006-.004-.013.002-.016.012a.023.023 0 0 0 .006.025c.46.271.938.507 1.43.707Zm-2.756-1.242-.001.003.001-.003Zm.124-.252h.001l.006-.002.011-.002c.004-.001.01-.01.015-.02.004-.009.004-.016 0-.015l-.011.002h-.005a.43.43 0 0 0-.025.053l.008-.016Zm7.236-.645a1.29 1.29 0 0 1-.301.363c-.106.096-.222.18-.347.249a1.861 1.861 0 0 1-.746.216 2.887 2.887 0 0 1-.743-.042 5.368 5.368 0 0 1-1.404-.483c-.003-.002-.007.002-.008.007v.008c0 .002.002.004.004.006a5.88 5.88 0 0 0 1.012.392 3.38 3.38 0 0 0 1.073.137v.005c.002.006.007.01.01.01.527-.029 1.105-.25 1.492-.868a.914.914 0 0 0 .087-.301 1.27 1.27 0 0 0-.01-.32 2.505 2.505 0 0 0-.096-.41l-.01-.032-.005-.016-.002-.008-.008-.014a1.589 1.589 0 0 0-.063-.106l-.035-.053-.035-.041a2.059 2.059 0 0 0-.11-.118l-.034-.031-.073-.063a3.34 3.34 0 0 0-.136-.101l-.128-.084a7.905 7.905 0 0 0-.47-.266l-.004.001a.008.008 0 0 0-.003.002.01.01 0 0 0-.001.004v.003c-.24-.127-.462-.242-.654-.362-.004-.002-.008 0-.01.006a.013.013 0 0 0 0 .008l.003.006c.22.139.477.27.759.421.142.078.287.157.45.267.037.024.084.059.124.089a1.66 1.66 0 0 1 .263.248l.031.038.032.047c.021.032.04.065.058.098l.013.024.004.015.01.03.017.059.033.123c.023.089.04.18.05.27a1.12 1.12 0 0 1-.001.296.83.83 0 0 1-.088.27Zm-5.115-.348a.022.022 0 0 0-.003.009.02.02 0 0 0 .002-.004v-.005h.001Zm5.247-.341a.011.011 0 0 0-.007.005.012.012 0 0 0-.002.008c.027.15.04.328-.002.494a.957.957 0 0 1-.204.392 2.055 2.055 0 0 1-.557.452c-.404.215-.828.247-1.23.21a4.48 4.48 0 0 1-1.177-.298 6.694 6.694 0 0 1-1.08-.54c-.003-.002-.007 0-.008.006a.013.013 0 0 0 .003.014c.36.223.74.41 1.134.56a6.61 6.61 0 0 1-.824-.374c-.003-.002-.007.002-.008.007v.008l.003.006c.486.262 1.01.48 1.557.595.274.057.555.088.84.07.286-.02.58-.089.859-.248.004-.002.004-.008 0-.012a.014.014 0 0 0-.009-.005 2.08 2.08 0 0 0 .535-.46.968.968 0 0 0 .192-.396 1.254 1.254 0 0 0-.005-.49.01.01 0 0 0-.01-.004Zm-1.663-1.998c.22.13.475.254.788.417l.123.065.129.072.14.084a4.18 4.18 0 0 1 .245.168 2 2 0 0 1 .089.072l.044.038.052.048.097.101a1.925 1.925 0 0 1 .19.265c.002.006.008.014.008.017l.003.008.006.016.01.032.022.063.043.138c.015.05.03.1.043.152a2.306 2.306 0 0 1 .073.47c0 .037.002.072 0 .108a1.412 1.412 0 0 1-.08.418l-.037.087a1.69 1.69 0 0 1-.388.513 2.307 2.307 0 0 1-.024.026 1.892 1.892 0 0 0 .332-.376.011.011 0 0 1 .006-.001c.022-.037.043-.075.064-.114.02-.043.04-.087.058-.133a1.432 1.432 0 0 0 .074-.649l-.009-.08-.012-.071-.013-.072-.015-.065c-.036-.151-.08-.3-.131-.446l-.008-.024a.068.068 0 0 0-.006-.015l-.017-.028a1.956 1.956 0 0 0-.149-.215 2.07 2.07 0 0 0-.15-.157l-.04-.038-.033-.028a3.117 3.117 0 0 0-.14-.11c-.007-.006-.01-.014-.006-.019.004-.004.014-.003.022.003.04.03.08.062.119.094a2.416 2.416 0 0 1 .253.252c.046.058.089.12.128.183l.028.047a.05.05 0 0 1 .007.015l.004.01.014.042.028.084a3.445 3.445 0 0 1 .11.399c.018.083.03.167.039.252.019.189.002.379-.05.56a1.326 1.326 0 0 1-.206.414 1.86 1.86 0 0 1-.23.256l-.12.112c-.042.038-.087.071-.13.106a2.37 2.37 0 0 1-1.26.458l.002.003v.007a2.27 2.27 0 0 0 1.459-.615l.102-.098c.034-.032.068-.07.102-.106a1.378 1.378 0 0 0 .343-.736c.02-.165.016-.332-.011-.495l-.02-.11-.022-.098a3.848 3.848 0 0 0-.05-.182l-.05-.16-.025-.073-.013-.037-.003-.009-.01-.02-.026-.041a1.986 1.986 0 0 0-.114-.164l-.03-.037-.027-.03-.057-.06a2.096 2.096 0 0 0-.22-.197c-.076-.06-.132-.096-.194-.137-.066-.044-.116-.073-.17-.106-.214-.124-.392-.212-.553-.296a.011.011 0 0 1-.005-.006v-.008l.002-.003a.01.01 0 0 1 .003-.003.01.01 0 0 1 .004 0 .01.01 0 0 1 .003 0l.16.082.174.09.095.05.099.056.105.061.056.035.06.039.059.04c.02.013.037.024.062.043.047.035.092.07.137.107l.032.027.04.037a2.354 2.354 0 0 1 .148.152 1.521 1.521 0 0 1 .15.207l.034.054a.063.063 0 0 1 .008.018l.004.012.033.094.033.1.033.107c.003 0 .006 0 .008.002a.012.012 0 0 1 .005.008l.02.067.018.075.018.075.016.084c.023.123.034.247.033.372a1.477 1.477 0 0 1-.059.39l-.028.089-.033.08a1.261 1.261 0 0 1-.073.141c-.085.141-.19.27-.31.38l-.08.076c-.03.026-.057.053-.087.077l-.088.071-.091.066a2.26 2.26 0 0 1-.397.219.013.013 0 0 1 .003.004l.002.004a.01.01 0 0 1 0 .004.01.01 0 0 1-.002.003 2.693 2.693 0 0 1-1.236.184 4.58 4.58 0 0 1-1.11-.231.012.012 0 0 1-.006-.013.01.01 0 0 1 .003-.007 6.903 6.903 0 0 1-1.385-.646 5.028 5.028 0 0 1-.59-.413 1.594 1.594 0 0 1-.224-.218c-.028-.035-.05-.07-.051-.095-.003-.014.01-.02.008-.034 0-.012.002-.025.004-.037a.051.051 0 0 1 .007-.011l.005-.006a.326.326 0 0 0-.007.047l-.007.012a.14.14 0 0 0 .033.078 1.2 1.2 0 0 0 .18.187c.159.134.326.256.501.366a7.03 7.03 0 0 0 1.183.6v-.003c.001-.006.005-.01.009-.008l.035.014a7.04 7.04 0 0 1-.855-.407 5.638 5.638 0 0 1-.758-.505V21.6a1.718 1.718 0 0 1-.26-.249c-.03-.04-.056-.08-.05-.105.004-.006.01-.01.01-.017v.019l.007.018c.021.05.076.11.135.168.136.128.282.244.437.347v-.005c.003-.005.007-.008.01-.006.458.31.95.564 1.466.756.267.1.542.178.821.233.292.058.59.078.886.06.11-.009.221-.024.33-.047a3.11 3.11 0 0 1-1.122.002 5.199 5.199 0 0 1-1.022-.29 6.98 6.98 0 0 1-.934-.45 5.013 5.013 0 0 1-.804-.56.944.944 0 0 1-.186-.21.109.109 0 0 1-.01-.023.039.039 0 0 1-.005-.02v-.006l-.008.01.003-.016a.287.287 0 0 1 .011-.04.09.09 0 0 1 .012-.017.29.29 0 0 0-.015.053l.008-.011v.01c.004.032.034.074.071.116l-.007-.009a.015.015 0 0 1 0-.013c.003-.005.007-.008.009-.006.072.083.152.16.239.227.092.075.193.15.298.22.215.146.439.28.67.398l.139.07h.002l.059.029a5.82 5.82 0 0 0 1.322.449 5.615 5.615 0 0 1-1.11-.364 6.927 6.927 0 0 1-.998-.54.012.012 0 0 1-.003-.014l.002-.004-.002-.002a.009.009 0 0 1-.003-.004.01.01 0 0 1 0-.005 4.532 4.532 0 0 1-.369-.269 1.396 1.396 0 0 1-.272-.275c0-.005 0-.01.003-.013.002-.005.005-.008.006-.006.041.064.11.134.187.203.078.07.165.138.256.204.188.137.385.262.588.376v-.001c.002-.006.006-.009.01-.007.545.305 1.14.556 1.777.68.32.062.652.088.997.045a2.103 2.103 0 0 0 1.256-.618 2.928 2.928 0 0 1-.233.203 2.12 2.12 0 0 1-.253.166c-.167.09-.345.158-.529.202a2.83 2.83 0 0 1-1.028.033c-.659-.093-1.27-.335-1.834-.632a.012.012 0 0 1-.004-.013c.001-.006.005-.009.008-.007.226.116.458.22.695.31a6.89 6.89 0 0 1-1.08-.544.013.013 0 0 1-.003-.014 4.861 4.861 0 0 1-.522-.37 1.901 1.901 0 0 1-.206-.193.473.473 0 0 1-.066-.091c-.014-.027-.02-.05-.003-.064a.09.09 0 0 0 .013.045c.018.033.04.064.066.091.065.07.134.134.207.194.168.134.343.257.526.369.385.237.793.435 1.217.591l.002-.002h.004c.486.176.998.302 1.543.282.004 0 .008.004.01.01v.004c.288-.01.571-.077.834-.196.144-.067.279-.15.402-.25l.095-.08.088-.08.087-.089c.029-.033.058-.065.086-.102a1.22 1.22 0 0 0 .159-.266 1.17 1.17 0 0 0 .086-.367 2.01 2.01 0 0 0-.093-.677 3.589 3.589 0 0 0-.04-.134l-.02-.064-.01-.032a1.74 1.74 0 0 0-.12-.188l-.024-.03-.02-.023-.043-.047a2.211 2.211 0 0 0-.09-.092 2.31 2.31 0 0 0-.164-.137l-.073-.053-.075-.051-.07-.044a4.338 4.338 0 0 0-.133-.08l-.125-.072a.011.011 0 0 1-.005-.006v-.009a.01.01 0 0 1 .014-.004l.132.074.141.086c.114.07.222.15.324.236l.042.037.05.048a1.418 1.418 0 0 1 .26.35l.043.135c.014.05.028.092.042.146a2.732 2.732 0 0 1 .07.338 1.48 1.48 0 0 1-.002.407 1.185 1.185 0 0 1-.3.61l.002.001.003.003a1.18 1.18 0 0 0 .318-.775 1.773 1.773 0 0 0-.05-.454 4.041 4.041 0 0 0-.1-.356l-.013-.04-.006-.02a.054.054 0 0 0-.005-.012l-.012-.02a1.792 1.792 0 0 0-.106-.162l-.028-.038-.027-.03a1.92 1.92 0 0 0-.27-.253l-.028-.021-.023-.017-.047-.033-.096-.065-.085-.053c-.227-.138-.417-.233-.594-.327a.012.012 0 0 1-.004-.014l.001-.003.003-.002.004-.001h.003l.232.122h.002c.176.093.369.188.615.363l.1.078.047.04.024.02.028.027a1.468 1.468 0 0 1 .26.32l.023.037a.17.17 0 0 1 .01.018l.002.009.025.073.05.154-.032-.106-.032-.099-.009-.025a.062.062 0 0 0-.005-.014l-.015-.026a1.895 1.895 0 0 0-.136-.2 1.995 1.995 0 0 0-.455-.396l-.06-.038-.052-.033c-.284-.172-.51-.281-.72-.392a.012.012 0 0 1-.004-.014l.002-.004s.001-.002.003-.002l.003-.001h.003l.153.08a7.882 7.882 0 0 1-.717-.404.012.012 0 0 1-.003-.007v-.007l-.008-.007a.01.01 0 0 1-.003-.007 1.547 1.547 0 0 1-.276-.234c-.002-.002-.002-.008 0-.014.002-.005.005-.008.007-.006.063.07.133.132.21.186.001-.004.004-.006.007-.005.116.083.236.16.36.228.134.076.287.154.449.238a.012.012 0 0 1-.003-.013.01.01 0 0 1 .005-.005 9.811 9.811 0 0 1-.606-.33 1.761 1.761 0 0 1-.407-.318.015.015 0 0 1 0-.013c.002-.006.005-.008.007-.006.096.111.257.227.448.341.002-.005.006-.007.01-.005Zm-.544 3.801v-.005a4.266 4.266 0 0 1-.44-.083c.145.037.292.067.44.09v-.002Zm.33.252a.013.013 0 0 1-.003-.012c-.556-.027-1.07-.174-1.555-.364.485.195 1 .346 1.558.376Zm2.126-1.42a1.19 1.19 0 0 1-.15.316h.001a.01.01 0 0 1 .004.005 1.188 1.188 0 0 0 .195-.725c.005.136-.012.273-.05.404Zm-5.42-.436c.003-.006.004-.009.002-.008a.026.026 0 0 0-.012.022l.003-.004a.04.04 0 0 0 .007-.01Zm-.063.113a.286.286 0 0 1 .02-.048l-.005.006a.111.111 0 0 0-.007.01.278.278 0 0 0-.021.06c.001-.001.001-.003.004-.005.007-.005.006-.015.01-.023Zm-.035.069v.004-.004Zm6.26-9.36-.002.01.002-.01Zm.225-.817Zm-.154.467-.002.009v-.001l.002-.008Zm-.002.009-.002.006-.007.032.003-.01.006-.028Zm-.025.115-.002.01-.001.005.002-.008.001-.007Zm.014-.07a.466.466 0 0 0-.005.027l.007-.034-.002.008Zm-.036.172-.001.003.005-.023-.004.02Zm.376-.984.002-.002-.002.002Zm-.304.673a1.899 1.899 0 0 0-.023.085l.02-.077.003-.008Zm-.096.449a.028.028 0 0 0 .002-.011l-.002.012v-.001Zm.043-.225-.015.067.011-.051.004-.016Zm-.025.117-.002.01.003-.016-.001.006Zm-.026.167v-.002l-.001.006v-.004Zm.34-1.089-.001.002.001-.002Zm.003-.005Zm-.231.557-.002.004v.003l.001-.004V11.4Zm.189-.488v-.002.002Zm.091-.138-.001.002.001-.002Zm-.385 1.11v-.01.002a.208.208 0 0 0 0 .008Zm.1-.47-.003.015.006-.022-.003.008Zm.296-.653.002-.002-.002.002Zm-.29.638a.463.463 0 0 1 .003-.01l-.003.009v.002Zm.266-.608-.004.005.002-.003.004-.005a.427.427 0 0 1 .01-.011h-.002l-.001.003.002-.004-.002.004-.008.01v-.001.002Zm.003-.004.002-.003-.002.002v.001Zm-.038.054-.002.003-.002.004a.897.897 0 0 1 .04-.058l-.01.013.005-.007-.004.005-.004.005a.308.308 0 0 0-.01.014l.01-.012a.37.37 0 0 0-.023.033Zm.047-.065Zm-.034.044c0 .002-.002.003-.003.004l-.01.016-.001.003.001-.002a.31.31 0 0 1 .013-.02Zm-.349 1.054Zm.383-1.098.005-.006h-.001.001l.001-.002-.004.004v.001l-.002.003Zm-.048.067Zm-.15.308-.005.017.015-.039-.001.003-.008.019Zm-6.791 5.374a.02.02 0 0 0 .026.01.02.02 0 0 0 .009-.012v-.007a3.969 3.969 0 0 1-.385-1.189c-.122-.799.008-1.593.257-2.273.059-.17.136-.334.21-.492.08-.155.16-.309.252-.441.085-.133.184-.258.278-.38.102-.12.2-.233.312-.34a.02.02 0 0 0 .006.007.02.02 0 0 0 .025 0c.509-.504 1.106-.824 1.712-.878.62-.063 1.245-.074 1.867-.035.294.018.587.053.877.107.28.053.545.124.771.22.005.001.01-.006.01-.016l-.001-.005c.125.051.244.118.354.2.092.075.155.158.165.234 0 .002.003-.003.005-.013a.112.112 0 0 0 .005-.023c-.014-.083-.088-.174-.193-.254a1.652 1.652 0 0 0-.4-.21 3.421 3.421 0 0 0-.502-.152 5.65 5.65 0 0 0-.556-.1 9.398 9.398 0 0 0-1.193-.075c-.415-.002-.829.019-1.241.062-.106.01-.208.032-.316.052l-.155.046c-.026.008-.053.015-.079.024l-.076.03a2.979 2.979 0 0 0-.6.32 3.732 3.732 0 0 0-.55.472 4.651 4.651 0 0 0-.476.567l-.104.157c-.035.056-.072.11-.104.17-.064.12-.134.243-.189.371l-.085.195c-.028.067-.05.134-.076.202-.024.069-.05.138-.07.208l-.06.213a4.524 4.524 0 0 0-.114 1.846c.066.412.195.811.384 1.182Zm4.449-6.016a11.623 11.623 0 0 0-1.735.041c-.103.008-.203.03-.308.048l-.152.042c-.026.008-.052.015-.077.024l-.074.028a2.89 2.89 0 0 0-.588.308 3.64 3.64 0 0 0-.54.456 4.559 4.559 0 0 0-.471.554l-.104.154c-.034.054-.071.107-.102.167-.064.116-.133.236-.187.361l-.085.191c-.028.065-.05.13-.075.198-.024.066-.05.134-.07.203l-.06.209a4.433 4.433 0 0 0-.123 1.812c.08.516.262 1.01.533 1.454.275.455.643.868 1.081 1.24a.022.022 0 0 0 .03 0 .019.019 0 0 0 .003-.008.019.019 0 0 0-.001-.015 3.83 3.83 0 0 1-1.61-2.688c.102.674.398 1.33.85 1.896a.02.02 0 0 0 .028.005.018.018 0 0 0 .007-.013v-.008a3.978 3.978 0 0 1-.843-1.9 4.323 4.323 0 0 1 .1-1.669c.123-.497.326-.97.6-1.4.245-.373.545-.706.888-.985a2.79 2.79 0 0 1 1.073-.54c.006-.001.008-.01.003-.02a.027.027 0 0 0-.013-.012c.106-.02.207-.04.31-.048a11.781 11.781 0 0 1 1.72-.049c.006 0 .01-.007.008-.017-.002-.01-.01-.019-.016-.02Zm2.317.708-.007.022-.01.03.004-.01-.003.007.004-.01c.01-.03.02-.059.032-.088l-.016.04a1.67 1.67 0 0 1 .038-.099l.008-.02-.015.04c.021-.056.043-.104.063-.147l.01-.02.003-.005c.021-.043.042-.078.06-.107l-.005.007-.002.003a.767.767 0 0 0-.01.014v.003a.738.738 0 0 0-.014.022l-.006.011.003-.005a.954.954 0 0 0-.006.01l.002-.003a1.87 1.87 0 0 0-.038.075v.001a4.417 4.417 0 0 0-.014.028l.003-.006a2.094 2.094 0 0 0-.025.057l.008-.02-.007.014-.006.017a2.11 2.11 0 0 0-.052.135l-.002.005Zm-5.364.154-.102.098-.097.106c-.005.006-.002.015.006.02a.02.02 0 0 0 .024.002 3.1 3.1 0 0 1 .782-.56c.264-.131.55-.207.843-.224.156-.006.341-.023.514-.03a11.416 11.416 0 0 1 1.538.04c.328.036.645.09.93.171.282.082.54.19.696.33.003.002.005-.005.006-.015a.035.035 0 0 0-.004-.023c-.158-.14-.418-.247-.702-.329a5.798 5.798 0 0 0-.935-.17 9.953 9.953 0 0 0-1.02-.05 11.51 11.51 0 0 0-.524.011c-.174.007-.359.024-.518.031-.418.021-.845.182-1.23.458l.105-.085.11-.076c.072-.05.147-.096.224-.138.006-.003.005-.012 0-.02a.02.02 0 0 0-.01-.008.021.021 0 0 0-.013-.001 3.164 3.164 0 0 0-.894.631c-.034.034-.07.067-.102.102l-.097.107a3.176 3.176 0 0 0-.187.225 3.267 3.267 0 0 0-.175.242c-.028.043-.058.085-.085.131l-.079.14c-.219.398-.38.826-.477 1.272a4.13 4.13 0 0 0-.07 1.47c.088.623.345 1.233.744 1.766.206.274.438.527.694.753.13.119.268.232.411.344.166.123.226.192.325.28.005.005.015.002.02-.007a.021.021 0 0 0 0-.025l-.137-.127a.785.785 0 0 0-.079-.068l-.106-.083a7.595 7.595 0 0 1-.41-.342 5.1 5.1 0 0 1-.69-.75 3.818 3.818 0 0 1-.737-1.757 4.057 4.057 0 0 1 .038-1.29 4.703 4.703 0 0 1 .499-1.405c.047-.081.09-.165.14-.239.052-.076.099-.146.15-.216l.16-.202c.219-.258.468-.493.73-.673l-.107.088c-.035.03-.068.063-.102.095Zm5.592-.602v.001a.107.107 0 0 0 .005-.006s0-.002.002-.003v.001l-.003.003-.003.003.002-.002-.003.003Zm-.365.976v-.002.005l-.004.015.001-.004v-.005.004l.028-.125-.003.011a3.78 3.78 0 0 0-.022.1Zm-.008.042-.005.028.01-.057v.001l-.005.028Zm.034-.16-.001.005v-.002l.002-.005v.002Zm-.047.24.008-.052-.008.05v.002Zm-.003.015v-.003l-.002.02v.007l-.002.003v.001l-.003.025-.001-.01c-.001.008-.003.013-.003.011a.175.175 0 0 0-.009-.056l-.028-.056a.55.55 0 0 0-.102-.106c-.04-.037-.094-.066-.146-.1a1.933 1.933 0 0 0-.18-.084 3.92 3.92 0 0 0-.91-.23 8.478 8.478 0 0 0-1.053-.079 11.265 11.265 0 0 0-.824.017c-.045.001-.094.006-.135.007a1.984 1.984 0 0 0-.266.001l-.08.006-.078.012c.027-.004.052-.009.079-.012l.08-.005c.052-.003.103-.005.155-.003l.075.002a.427.427 0 0 0 .08 0l.184-.009c.124-.005.246-.008.369-.009a.018.018 0 0 1 .013.01c.61-.004 1.212.038 1.742.152.005.001.01.01.012.02.002.011-.002.018-.007.017a7.138 7.138 0 0 0-1.196-.143 11.01 11.01 0 0 0-.958 0l-.16.009c-.022 0-.044 0-.065-.003l-.065-.002a1.846 1.846 0 0 0-.425.037c-.38.09-.759.305-1.097.636l.006.003a.022.022 0 0 1 .008.009c.217-.213.47-.384.745-.507.245-.11.511-.16.779-.15.062 0 .107.01.188.003l.221-.01a9.74 9.74 0 0 1 1.301.037c.27.025.536.068.8.13.247.06.475.138.652.237a.03.03 0 0 1 .007.023c0 .01-.002.017-.006.015-.17-.095-.39-.17-.628-.227a5.72 5.72 0 0 0-.768-.122c.002.01-.001.016-.007.016a9.544 9.544 0 0 0-1.314-.043c-.146.002-.312.019-.412.004-.068-.005-.135-.002-.205 0-.15.013-.297.045-.438.096a.04.04 0 0 1 .007.007c.006.008.008.016.002.018-.24.086-.464.212-.664.373a3.3 3.3 0 0 0-.598.634 3.732 3.732 0 0 0-.457.85c-.13.335-.212.687-.24 1.046a.022.022 0 0 1-.019.018h-.007a.016.016 0 0 1-.007-.003c-.011.162-.01.324.003.486.044.5.223.998.519 1.438.151.228.325.44.517.632.098.1.202.197.31.293l.167.143.085.07.066.06a13.691 13.691 0 0 0 2.155 1.699.02.02 0 0 1 .005.025c-.004.01-.012.014-.02.01a13.756 13.756 0 0 1-2.077-1.597l-.116-.11c-.041-.037-.105-.086-.157-.13a6.923 6.923 0 0 1-.315-.275 4.7 4.7 0 0 1-.54-.59 3.287 3.287 0 0 1-.63-1.357.026.026 0 0 1-.005.003.014.014 0 0 1-.017-.004 6.125 6.125 0 0 0 1.42 2.206l.118.097.058.048a.653.653 0 0 1 .05.044l.165.156c.222.207.452.41.691.605a.019.019 0 0 1 .005.018c.387.314.79.608 1.209.878l.389.207.132.072.141.081c.048.028.102.062.151.093l.082.055.082.059a2.361 2.361 0 0 1 .18.152 2.15 2.15 0 0 1 .142.154 1.861 1.861 0 0 1 .13.203l.023.073c.015.046.03.1.045.15.033.115.058.232.074.35.02.138.017.279-.006.416a1.025 1.025 0 0 1-.14.358 1.28 1.28 0 0 1-.191.242c-.128.132-.27.247-.424.345a2.064 2.064 0 0 1-.94.29.012.012 0 0 1-.006-.004.012.012 0 0 1-.004-.006c-.001-.006 0-.01.005-.011.103-.015.205-.036.306-.064a2.72 2.72 0 0 1-.903.02 4.495 4.495 0 0 1-.854-.208 6.625 6.625 0 0 1-1.542-.774.013.013 0 0 1-.002-.014c.002-.005.005-.008.008-.006a6.55 6.55 0 0 0 1.67.816c.3.094.61.164.928.186.319.022.648-.002.976-.122h.008a.013.013 0 0 1 .005.006c.003.005.002.01-.002.012-.099.044-.2.08-.305.109a1.91 1.91 0 0 0 .845-.394c.066-.055.127-.107.187-.167.066-.063.125-.132.179-.206.063-.09.113-.191.147-.297.036-.122.051-.25.047-.378a1.922 1.922 0 0 0-.049-.346 4.09 4.09 0 0 0-.078-.287l-.021-.066a.085.085 0 0 0-.008-.02l-.018-.031a1.598 1.598 0 0 0-.122-.18 2.077 2.077 0 0 0-.405-.357 5.85 5.85 0 0 0-.521-.306l-.137-.072.01.006a.022.022 0 0 1 .007.012.029.029 0 0 1-.001.013c-.004.01-.013.014-.02.01a13.805 13.805 0 0 1-1.964-1.481.026.026 0 0 1-.003.009c-.006.009-.015.012-.02.006a11.967 11.967 0 0 1-.284-.264c-.038-.04-.113-.098-.18-.153a7.913 7.913 0 0 1-.198-.169 5.071 5.071 0 0 1-.682-.719c-.39-.507-.637-1.091-.695-1.688-.064-.647.073-1.277.291-1.804l.086-.194c.03-.064.064-.125.096-.185l.048-.09.054-.086c.036-.057.07-.113.107-.167a3.93 3.93 0 0 1 .488-.57c.061-.057.123-.11.182-.161.063-.05.127-.096.188-.14a3.18 3.18 0 0 0-.62.56 3.635 3.635 0 0 0-.511.769 4.273 4.273 0 0 0-.342.966c-.08.362-.104.734-.07 1.103.043.404.162.795.351 1.153.192.366.454.704.77 1.015.157.156.328.306.508.453l.067.054c.01.007.018.015.027.024l.023.022.093.088a13.726 13.726 0 0 0 .992.851v.007c.398.31.812.596 1.24.86a.02.02 0 0 1 .005.024c-.003.01-.012.014-.02.01a13.85 13.85 0 0 1-.972-.65l.117.086a.02.02 0 0 1 .004.025c-.004.01-.013.013-.02.008a13.77 13.77 0 0 1-1.234-1.002c-.098-.088-.188-.175-.287-.268a9.567 9.567 0 0 1-.404-.34 4.87 4.87 0 0 1-.68-.74 3.772 3.772 0 0 1-.215-.319c-.028-.045-.052-.092-.078-.138a3.267 3.267 0 0 1-.377-1.181c-.074-.652.053-1.29.262-1.831-.213.54-.344 1.181-.274 1.836.033.282.101.559.204.822.108.272.248.53.417.767.178.248.38.478.6.687.115.108.234.213.36.316l.187.153.128.122a.02.02 0 0 1 .005.012c0 .005-.001.01-.004.013a.022.022 0 0 1-.006.006l.005.005a.018.018 0 0 1 .004.008v.01c.48.447.99.86 1.526 1.235a.021.021 0 0 1 .004.026c-.004.009-.013.012-.02.008a14.027 14.027 0 0 1-1.428-1.143l-.267-.247a6.98 6.98 0 0 1-.724-.646l-.002.002a.02.02 0 0 1-.027 0 4.145 4.145 0 0 1-.713-.996 3.37 3.37 0 0 1-.338-1.118 3.899 3.899 0 0 1 .166-1.595c.14-.459.358-.89.644-1.272.264-.347.578-.64.906-.844.04-.026.083-.05.126-.071.042-.022.082-.045.125-.065.088-.036.168-.076.257-.1a1.87 1.87 0 0 1 .518-.094l.045-.002.145-.005.166-.013-.167.01-.147.002c-.087 0-.172.012-.263.021l-.13.027a2.353 2.353 0 0 0-.648.265 3.495 3.495 0 0 0-.923.844c-.064.088-.133.178-.195.277-.059.1-.125.201-.177.31l-.081.164c-.027.056-.05.113-.074.171-.023.058-.049.117-.07.177l-.06.182a3.91 3.91 0 0 0-.17 1.614c.071.629.339 1.242.756 1.773a.023.023 0 0 1 .003.006.02.02 0 0 1 0 .008.022.022 0 0 1-.002.007.016.016 0 0 1-.005.005.019.019 0 0 1-.026-.003 3.636 3.636 0 0 1-.75-1.589c.083.457.255.892.506 1.28.277.437.652.827 1.091 1.186a.019.019 0 0 1 .008.013c0 .005 0 .01-.004.014l.187.15.022.017.015.015.031.03.062.058a14.653 14.653 0 0 0 .779.676c.36.29.741.569 1.141.83a.021.021 0 0 1 .007.012.02.02 0 0 1-.002.013.014.014 0 0 1-.008.01.014.014 0 0 1-.012-.001 13.994 13.994 0 0 1-1.854-1.434l-.12-.11-.06-.057-.088-.07c-.49-.38-.91-.796-1.22-1.265a3.59 3.59 0 0 1-.576-1.519 3.639 3.639 0 0 1-.027-.326.015.015 0 0 1-.009-.013 4.341 4.341 0 0 1 .336-1.75l.04-.097.044-.095.09-.184c.033-.06.067-.118.1-.175.034-.057.067-.115.104-.167l.108-.155c.036-.05.077-.098.115-.146.075-.097.16-.186.242-.273a.02.02 0 0 1 .024 0 .027.027 0 0 1 .005.005c.25-.254.523-.46.807-.603.272-.14.57-.218.874-.23 1.035-.07 2.172-.05 3.024.22.005.001.01.01.01.021.001.01-.002.017-.008.016a5.5 5.5 0 0 0-1.175-.216 10.676 10.676 0 0 0-1.308-.027.026.026 0 0 1 .004.011c.53-.019 1.056-.004 1.551.056.238.027.475.07.707.128.221.056.426.128.59.218a.03.03 0 0 1 .006.01.03.03 0 0 1 .002.012c0 .01-.003.017-.007.015-.032-.02-.071-.036-.108-.054-.036-.018-.076-.033-.117-.05h-.002c-.353-.126-.788-.2-1.239-.235.293.027.583.075.868.145.268.069.512.16.69.276a.036.036 0 0 1 .005.023c0 .01-.003.016-.006.014-.044-.025-.086-.053-.136-.077.13.067.237.145.299.227.013.022.027.042.037.062l.015.063-.001.014.003-.017-.001.008-.008.043-.006.033-.003-.02-.006-.037a.203.203 0 0 0-.017-.035c-.051-.096-.17-.188-.318-.264a.037.037 0 0 1 .006.02.03.03 0 0 1-.002.012c.05.026.097.054.143.085l.059.047.027.023.023.025a.585.585 0 0 1 .041.049l.027.05a.123.123 0 0 1 .013.051l.003.024v.003l.001-.012.001-.002Zm-5.978.834h-.002a.02.02 0 0 1-.008-.006 4.56 4.56 0 0 0-.336.874c.085-.301.2-.592.345-.868Zm.655-.323c-.005 0-.01 0-.014-.002a.021.021 0 0 1-.007-.005c-.254.34-.45.72-.58 1.125a3.55 3.55 0 0 0-.17 1.414c.006.06.015.117.024.176a2 2 0 0 0 .001 0 2.43 2.43 0 0 1-.022-.177 3.532 3.532 0 0 1 .18-1.413c.132-.404.33-.782.588-1.118Zm3.052-1.405a10.54 10.54 0 0 0-.635-.008l.001.002a.022.022 0 0 1 0 .01 9.59 9.59 0 0 1 .634-.004Zm2.322.633.005-.026v.001l-.005.025-.003.017.002-.01v-.004l.012-.053c-.003.016-.008.033-.01.05Zm.044-.184-.004.014.014-.052v.004c-.004.01-.007.023-.01.034Zm.03-.105.002-.005v.003l-.001.002Zm-.058.217.024-.098-.019.07-.006.028Zm-.005.022.005-.021a.759.759 0 0 0-.005.02Zm.083-.303-.004.009c0 .004-.002.008-.003.011a3.92 3.92 0 0 0-.033.112v-.002l.001-.002.005-.016.003-.009-.005.018.012-.039.005-.018-.002.008v-.004l.002-.006.007-.024c0-.004.002-.007.003-.01a1.19 1.19 0 0 0 .004-.012l.006-.018-.005.012.003-.01Z"/>
    <path fill="#231F20" d="m12.162 23.309.031-.065-.031.065Zm.11-.226-.001.004.013-.005a.497.497 0 0 1 .015-.047c.001-.003-.003.002-.008.01a6.66 6.66 0 0 1-.019.038Zm.033-.073-.02.042h.001l.019-.042Zm-.085.179.002-.004v-.001l-.002.004v.001Zm0 0-.003.006.003-.007Zm-.026.053v.002-.002a3.47 3.47 0 0 1 .017-.034l.006-.013-.002.004.002-.004.004-.007.001-.004.01-.02.011-.023.003-.006.02-.04.007-.016v.004l.018-.039-.001.002-.004.005-.002.005-.006.012.007-.016a.115.115 0 0 0-.009.015.023.023 0 0 1-.003.011l-.028.059v.002l-.024.048-.004.008c.002-.007.002-.015.003-.022 0-.003-.004.002-.01.011a.099.099 0 0 0-.012.022l-.004.036-.053.11.053-.11Zm-.078.16-.016.034c-.044.09-.058.117 0 0l.016-.033v-.002Zm.223-.468-.034.076.02-.045.014-.031Zm-.214.45.002-.003-.002.003Zm10.252-.634h.001a.019.019 0 0 1 .01.006c.095-.37.143-.75.141-1.133-.003.38-.054.76-.152 1.127Zm-4.022 2.663v-.012a6.933 6.933 0 0 1-.875-.052c.29.04.583.061.875.064ZM12.2 23.234l-.003.005.003-.005Zm6.86 2.562a.026.026 0 0 1-.008-.013.022.022 0 0 1 0-.01 6.72 6.72 0 0 1-1.606-.022 9.644 9.644 0 0 1-1.518-.323 9.635 9.635 0 0 0 1.52.335 6.66 6.66 0 0 0 1.612.033Zm-6.914-2.454.013-.027v-.002l-.014.029Zm-.014.027.01-.02.02-.04-.03.06Zm.004-.006.002-.004-.003.005v.001l-.005.01-.003.006-.001.002-.002.002v.003a.812.812 0 0 1-.006.01l.005-.009v.001h-.001l-.003.006v.002a2.322 2.322 0 0 1-.02.038l.018-.035-.001.002.005-.01-.005.009.001-.002-.017.036c-.03.06-.001.002.04-.084l-.02.041.013-.024-.012.024.021-.045.003-.006-.024.05v-.002l.037-.075.002-.002.034-.071.018-.036-.018.037v.002l-.008.017-.005.01-.003.005.003-.005.007-.004.004-.003-.002.013c0 .005.002.013-.002.017l-.016.01.003-.013.001-.007v-.004l.001-.001s0-.001 0 0l-.004.008-.007.015-.003.006.001-.004-.003.007-.005.01-.001.003v-.002l-.002.006-.005.009-.001.002-.004.008v.001l-.001.002v-.002l-.006.013.002-.003-.002.003Zm-.013.026.001-.003.002-.004-.003.006Zm-.003.006.001-.003-.001.002Zm.14-.288.012-.024-.011.023Zm.002-.005-.003.007.002-.003.001-.004Zm-.143.294v.002-.002Zm.229-.482-.01.02.005-.008.005-.012Zm-.05.163-.012.004h-.002l-.008.032a.094.094 0 0 1 .013-.005l.008-.031Zm-.028.01.002-.004-.012.024c-.002.005-.005.008-.004.013v.004a.054.054 0 0 1 .006-.004.505.505 0 0 1 .009-.033Zm-.056.114-.002.005.002-.005Zm.077-.157.073-.15-.073.15Zm-.04.084.008-.018-.013.025-.003.007-.006.013-.004.008-.01.021.009-.02-.002.004-.008.017-.002.005-.003.005-.003.006.003-.006a.177.177 0 0 0-.003.006h.001l.002-.003.001-.003.004-.007.002-.004.003-.007c.002-.003 0 .001 0 .001a.032.032 0 0 0-.005.019l.007-.004.013-.006a.096.096 0 0 1-.003-.027l-.002.002-.004.001.009-.018.001-.003.003-.007.001-.001.012-.024-.009.018Zm.057-.055c.002 0 .002-.003.003-.005l.006-.024a.507.507 0 0 1 .037-.093c0-.003-.003.002-.01.01a.25.25 0 0 0-.013.021.502.502 0 0 0-.034.095l.004-.001.007-.003Zm9.655-1.037c-.01.125-.036.25-.058.37-.03.12-.054.238-.094.353a3.429 3.429 0 0 1-.126.331c-.053.106-.1.21-.164.307-.057.099-.129.19-.195.278-.076.085-.146.17-.228.243a3.25 3.25 0 0 1-.824.578 3.64 3.64 0 0 1-.887.306c-.6.128-1.206.12-1.8.045a9.194 9.194 0 0 1-1.753-.42 11.57 11.57 0 0 1-1.648-.71c-.007-.003-.014.003-.016.014a.024.024 0 0 0 0 .014.023.023 0 0 0 .007.011 11.19 11.19 0 0 0 2.287.904 11.034 11.034 0 0 1-1.658-.586c-.007-.003-.014.003-.015.014a.024.024 0 0 0 .008.026c.495.223 1.004.41 1.524.558a8.278 8.278 0 0 0 1.597.298 5.05 5.05 0 0 0 1.634-.116c.279-.07.549-.17.805-.302.274-.14.528-.318.755-.528.007-.006.005-.017-.004-.023a.026.026 0 0 0-.02-.005l.057-.054c.082-.075.152-.161.228-.247.066-.091.138-.183.194-.283.063-.098.11-.204.163-.311.048-.11.09-.222.125-.336.04-.115.065-.234.093-.356.021-.121.046-.247.057-.373a4.95 4.95 0 0 0 .025-.389c.002-.065 0-.131-.001-.198l-.002-.1-.006-.097a.018.018 0 0 0-.013-.016h-.007a.022.022 0 0 0-.014.007.022.022 0 0 0-.005.014l.005.096.001.1c0 .067.002.132 0 .197a4.37 4.37 0 0 1-.027.386Zm-9.597.836v.01l-.001.011.016-.033v-.014l.002-.013-.012.027-.003.007c0-.001 0 0 0 0-.002.002-.002.003-.002.005l-.018.041.006-.013.012-.028Zm.017-.041v.002l.001-.003-.001.001Zm-.123.276-.001.003.001-.003Zm.13-.264h.001l.006-.002.011-.002c.005 0 .012-.01.016-.02.005-.01.005-.017 0-.017l-.012.003h-.004a2.714 2.714 0 0 1-.018.038Zm2.215-1.037a.02.02 0 0 0-.004.01l.002-.004.002-.006Zm3.175 1.528v-.006a4.46 4.46 0 0 1-.459-.087c.151.04.304.07.459.094v-.001Zm.345.263a.015.015 0 0 1-.003-.013c-.58-.028-1.118-.181-1.625-.38.507.203 1.044.361 1.628.393Zm2.22-1.484a1.244 1.244 0 0 1-.156.33v.001a.01.01 0 0 1 .005.005 1.243 1.243 0 0 0 .204-.758c.005.143-.013.285-.053.422Zm-5.66-.455.002-.008a.026.026 0 0 0-.01.01.027.027 0 0 0-.003.013l.003-.004a.042.042 0 0 0 .007-.011Zm-.066.118a.292.292 0 0 1 .02-.05l-.005.006a.12.12 0 0 0-.008.011.303.303 0 0 0-.021.063c.001-.002.001-.004.004-.006.008-.005.006-.016.01-.024Zm-.037.072v.005-.005Zm6.538-9.776-.002.01.002-.01Zm.235-.853.015-.033-.015.033Zm-.16.487-.001.002-.002.008v-.001l.002-.009Zm-.003.01-.002.007-.007.033.003-.012.006-.028Zm-.025.12-.003.011-.001.005.002-.01.002-.006Zm.014-.072-.005.027.007-.035-.002.008Zm-.038.178a.04.04 0 0 0 0 .004l.004-.024-.004.02Zm.393-1.027.002-.002-.002.002Zm-.318.703a1.966 1.966 0 0 0-.002.008l.002-.008Zm-.1.468a.03.03 0 0 0 .002-.011l-.002.013v-.002Zm.045-.234a2.5 2.5 0 0 0-.015.07l.011-.054.004-.016Zm-.026.122-.002.01.003-.017-.001.007Zm-.027.174v-.002l-.001.007v-.005Zm.355-1.137-.001.002.001-.002Zm.003-.005Zm-.241.582-.002.004a.136.136 0 0 0 0-.002l.002-.002Zm.197-.51v-.002.002Zm.095-.144-.001.001.002-.002Zm-.402 1.159.001-.01v.001l-.001.009Zm.105-.49-.004.015.006-.023a.21.21 0 0 1-.002.008Zm.309-.683.001-.002-.001.002Zm-.304.667.003-.011-.003.01v.001Zm.279-.636-.005.005.002-.002.005-.006.01-.012-.002.001-.001.003.002-.004-.002.004-.009.01.001-.001-.001.002Zm.003-.004.002-.003-.002.003Zm-.04.057-.002.003-.002.004a.911.911 0 0 1 .042-.061h-.001l-.01.014.005-.008-.004.006-.004.005a.582.582 0 0 0-.01.015l.009-.013a.401.401 0 0 0-.023.035Zm.049-.069v.001Zm-.035.047-.003.004-.01.016-.002.004.001-.002a.337.337 0 0 1 .014-.022Zm-.365 1.101Zm.4-1.148.005-.005v-.001l.002-.002-.004.005-.001.001-.002.002Zm-.05.07v.002-.001Zm-.156.322-.006.018.015-.04v.002l-.009.02Zm-7.094 5.614a.02.02 0 0 0 .027.01.02.02 0 0 0 .01-.012v-.009a4.148 4.148 0 0 1-.402-1.241c-.127-.834.009-1.664.268-2.374.062-.179.142-.349.219-.513.085-.162.168-.323.264-.461.088-.14.192-.27.29-.397.107-.125.21-.243.326-.356a.022.022 0 0 0 .006.008.02.02 0 0 0 .027 0c.53-.527 1.155-.861 1.788-.917.648-.066 1.3-.078 1.95-.037.307.019.613.056.916.112.291.055.568.13.805.229.005.002.01-.005.01-.016l-.001-.005c.131.053.255.123.37.208.096.079.161.165.173.245 0 .003.002-.003.005-.014a.12.12 0 0 0 .004-.024c-.014-.087-.091-.181-.201-.265a1.725 1.725 0 0 0-.417-.22 3.564 3.564 0 0 0-.525-.158 5.889 5.889 0 0 0-.581-.104 9.807 9.807 0 0 0-1.246-.078c-.433-.002-.866.019-1.297.064-.11.01-.216.034-.329.055l-.162.047c-.027.009-.056.016-.082.026l-.08.031c-.218.08-.42.2-.626.335-.207.145-.4.31-.575.492-.18.184-.347.382-.497.593l-.109.164c-.036.058-.075.114-.108.178-.067.125-.14.252-.197.387l-.09.204c-.028.069-.052.14-.078.21-.025.072-.052.144-.074.218l-.062.222a4.719 4.719 0 0 0-.12 1.928c.07.43.204.847.401 1.235Zm4.647-6.284a12.16 12.16 0 0 0-1.812.043c-.108.009-.212.03-.322.05l-.158.044c-.027.008-.055.015-.08.024l-.078.03a3.025 3.025 0 0 0-.614.322c-.203.14-.392.3-.565.476-.179.18-.343.373-.491.579l-.108.16c-.036.057-.075.113-.108.175-.066.121-.138.246-.195.377l-.088.2c-.03.067-.053.136-.08.206-.024.07-.05.14-.073.212l-.062.218a4.631 4.631 0 0 0-.128 1.893c.084.54.273 1.056.556 1.519.288.475.673.907 1.13 1.294.004.004.01.006.016.006a.023.023 0 0 0 .015-.006.02.02 0 0 0 .004-.007.02.02 0 0 0-.002-.016 4.098 4.098 0 0 1-1.683-2.807 4.192 4.192 0 0 1 .002 0c.106.703.415 1.389.888 1.98a.021.021 0 0 0 .029.004.02.02 0 0 0 .003-.028 4.154 4.154 0 0 1-.876-1.977 4.516 4.516 0 0 1 .104-1.744c.129-.52.34-1.014.627-1.463.256-.389.569-.736.928-1.028a2.89 2.89 0 0 1 1.12-.563c.006-.002.008-.011.003-.02a.028.028 0 0 0-.014-.014c.111-.02.217-.042.325-.05a12.238 12.238 0 0 1 1.796-.051c.006 0 .01-.008.008-.019-.003-.01-.01-.019-.017-.02Zm-3.182.9-.107.103-.101.11c-.005.006-.002.016.006.022a.022.022 0 0 0 .013.004c.005 0 .009 0 .013-.003.24-.237.516-.434.816-.585.276-.136.575-.216.88-.234.164-.006.357-.024.537-.03a11.105 11.105 0 0 1 1.606.041c.343.038.674.094.972.179.294.086.564.198.727.343.003.003.006-.004.007-.014a.037.037 0 0 0-.005-.024c-.165-.146-.437-.259-.733-.344a6.08 6.08 0 0 0-.977-.178 10.38 10.38 0 0 0-1.065-.053c-.182 0-.364.005-.547.013-.182.007-.375.024-.541.032-.437.022-.882.19-1.285.478l.11-.088.115-.08c.075-.053.153-.1.234-.144.005-.003.005-.013-.001-.021a.021.021 0 0 0-.023-.01 3.307 3.307 0 0 0-.934.66c-.035.035-.073.07-.107.106l-.1.112a3.868 3.868 0 0 0-.379.488c-.03.045-.06.089-.088.137l-.083.145a4.92 4.92 0 0 0-.498 1.33 4.295 4.295 0 0 0-.073 1.535c.09.65.36 1.287.776 1.844.215.286.458.55.725.787a7.9 7.9 0 0 0 .43.359c.173.128.236.2.338.291.007.006.016.003.022-.006a.022.022 0 0 0 .004-.013.022.022 0 0 0-.005-.014l-.143-.132a.828.828 0 0 0-.082-.071l-.11-.087a7.947 7.947 0 0 1-.428-.357 5.327 5.327 0 0 1-.721-.784 3.989 3.989 0 0 1-.77-1.834 4.238 4.238 0 0 1 .04-1.348 4.913 4.913 0 0 1 .52-1.467c.05-.085.094-.172.148-.25.053-.079.102-.152.156-.225l.167-.211c.228-.27.489-.515.762-.703l-.112.092c-.037.031-.07.065-.106.099Zm5.459.39v-.001.004l-.004.017.001-.005.001-.004v.003a2.01 2.01 0 0 1 .028-.13l-.003.012-.023.105Zm-.008.045-.005.029.01-.06v.002l-.005.029Zm.035-.167v.005-.008.003Zm-.049.25.009-.054-.009.051v.003Zm-6.247.887h-.002a.022.022 0 0 1-.008-.006c-.148.29-.266.597-.352.912.09-.314.21-.618.362-.906Zm.684-.337c-.005 0-.01 0-.014-.003a.023.023 0 0 1-.008-.005c-.265.354-.47.752-.605 1.176a3.7 3.7 0 0 0-.177 1.477c.005.061.014.122.024.183a2.1 2.1 0 0 0 .001 0 2.605 2.605 0 0 1-.023-.184 3.69 3.69 0 0 1 .188-1.477c.138-.421.346-.816.614-1.167Zm3.188-1.468c-.218-.01-.44-.012-.663-.008v.001a.025.025 0 0 1 .002.011c.222-.008.443-.01.661-.004Zm2.426.661.005-.027v.001l-.005.027-.004.017.002-.011v-.002l.001-.002v.001c.003-.019.008-.038.012-.056l-.011.052Zm.045-.192-.004.015.015-.054-.001.004-.01.035Zm.032-.11.002-.004-.001.002v.002Zm-.062.228a1.93 1.93 0 0 1 .026-.103l-.02.074-.006.029Zm-.004.022.004-.022-.004.022Zm.086-.316-.003.009-.004.012a4.54 4.54 0 0 0-.035.117l.001-.003v-.002l.006-.017.003-.008-.006.017.013-.04.005-.02-.002.01v-.004c.002-.002.002-.005.003-.007l.007-.025c0-.004.002-.007.003-.011a1.423 1.423 0 0 0 .004-.012l.006-.018-.004.012.003-.01Z"/>
    <path fill="#FBFBFB" d="M11.5 16.828h-.002a.059.059 0 0 1-.022-.006l-.642 1.518.667-1.512Zm1.378-.901c-.011.004-.023.005-.034.004a.063.063 0 0 1-.02-.006l-2.255 5.236 2.309-5.234Zm2.04-6.745h.003c.008 0 .016.003.023.007l.573-1.367-.6 1.36ZM6.853 25.704c.024.002.049-.006.055-.02l5.417-12.28-.367 1.057c-.004.014.011.026.036.028.024.003.048-.006.054-.02l5.483-12.43c.006-.013-.01-.026-.034-.03-.024-.002-.05.007-.055.02L12.39 13.484l.366-1.057c.005-.013-.011-.026-.035-.028-.025-.002-.049.006-.054.02L6.82 25.674c-.006.014.01.027.034.03Zm.048-1.096c.025.002.05-.006.056-.02l2-4.536-1.403 3.235c-.006.013.01.027.034.03.024.002.05-.007.055-.02l5.235-11.869c.006-.013-.01-.026-.034-.029a.074.074 0 0 0-.043.008l1.82-4.194c.006-.014-.01-.027-.034-.03-.025-.003-.05.006-.055.02L6.869 24.578c-.006.014.009.027.033.03Zm.837-2.399c.025.003.05-.006.056-.02l3.44-7.798a.058.058 0 0 0 .022.007c.025.002.05-.007.055-.02l4.98-11.288c.005-.014-.01-.027-.034-.03h-.013L17.268.713c.006-.014-.009-.027-.033-.03-.025-.003-.05.006-.056.02L7.706 22.18c-.006.013.009.027.034.03Z"/>
    <path fill="#FBFBFB" d="M10.571 19.043h-.003a.062.062 0 0 1-.022-.006l-.641 1.518.666-1.512Zm1.377-.901a.08.08 0 0 1-.034.003.063.063 0 0 1-.02-.005L9.64 23.376l2.308-5.234Zm2.04-6.746a.057.057 0 0 1 .027.008l.572-1.367-.6 1.36ZM5.923 27.92c.025.002.05-.007.055-.02l5.417-12.28-.366 1.057c-.005.013.01.026.035.028.024.003.048-.006.054-.02l5.483-12.43c.006-.013-.009-.026-.034-.03-.024-.002-.049.007-.055.02L11.46 15.699l.366-1.057c.005-.014-.01-.026-.035-.028-.024-.003-.048.006-.054.02L5.89 27.889c-.007.014.008.027.033.03Zm.049-1.096c.024.002.049-.007.055-.02l2-4.537-1.403 3.235c-.006.014.01.027.034.03.025.003.05-.006.055-.02l5.235-11.868c.006-.013-.009-.027-.033-.03a.074.074 0 0 0-.043.008l1.82-4.194c.005-.013-.01-.026-.035-.03-.024-.002-.049.007-.055.02L5.94 26.794c-.006.014.009.027.034.03Zm.837-2.399c.024.003.05-.006.055-.02l3.44-7.798a.06.06 0 0 0 .022.006c.025.003.05-.006.056-.02l4.979-11.287c.006-.014-.01-.027-.034-.03a.08.08 0 0 0-.012 0l1.022-2.348c.006-.013-.009-.026-.033-.03-.025-.002-.05.007-.055.02L6.776 24.395c-.006.014.01.028.034.03Z"/>
  </g>
  <defs>
    <clipPath id="a">
      <path fill="#fff" d="M0 0h22.878v27.236H0z" transform="translate(.234 .683)"/>
    </clipPath>
  </defs>
</svg>
